<?xml version="1.0" encoding="UTF-8"?><svg id="Layer_1" xmlns="http://www.w3.org/2000/svg" xmlns:xlink="http://www.w3.org/1999/xlink" viewBox="0 0 729.52 654.01"><defs><style>.cls-1{fill:url(#linear-gradient-2);}.cls-2{fill:#6385eb;}.cls-3{fill:#826aef;}.cls-4{fill:#9956f2;}.cls-5{fill:#8964f0;}.cls-6{fill:#dd1bfb;}.cls-7{fill:#a849f4;}.cls-8{fill:#5492e9;}.cls-9{fill:#915df1;}.cls-10{fill:#ce28f9;}.cls-11{fill:#af43f5;}.cls-12{fill:#3da6e6;}.cls-13{fill:#bf35f7;}.cls-14{fill:#7e6fef;}.cls-15{fill:#d522fa;}.cls-16{fill:#44a1e7;}.cls-17{fill:#2db5e4;}.cls-18{fill:#7b70ee;}.cls-19{fill:#a050f3;}.cls-20{fill:#5c8cea;}.cls-21{fill:#b73cf6;}.cls-22{fill:#7377ed;}.cls-23{fill:url(#linear-gradient-3);}.cls-24{fill:#6c7eec;}.cls-25{fill:url(#linear-gradient);}.cls-26{fill:#c430f8;}.cls-27{fill:#36ade5;}.cls-28{fill:#4c99e8;}</style><linearGradient id="linear-gradient" x1="0" y1="327" x2="729.52" y2="327" gradientUnits="userSpaceOnUse"><stop offset=".29" stop-color="#ffdb6e"/><stop offset="1" stop-color="#ffbc5e"/></linearGradient><linearGradient id="linear-gradient-2" x1="495" y1="447.52" x2="573.82" y2="447.52" xlink:href="#linear-gradient"/><linearGradient id="linear-gradient-3" x1="531.49" y1="527.78" x2="542.16" y2="527.78" xlink:href="#linear-gradient"/></defs><path class="cls-19" d="m65.63,120.88c9.83,0,19.65,0,29.48,0,5.27,9.6,10.41,19.27,15.83,28.78,17.56,30.78,35.16,61.54,52.87,92.23,17.1,29.63,34.4,59.14,51.56,88.73,19.61,33.82,39.28,67.61,58.65,101.57,4.77,8.37,8.5,17.33,12.7,26.02-9.82,0-19.65,0-29.47,0-1.19-3.66-1.78-7.66-3.65-10.93-16.1-28.25-32.31-56.44-48.79-84.47-3.96-6.74-9.07-12.81-13.65-19.18-.08-2.16-.23-4.32-.24-6.49-.06-12.04-.18-12.18-11.8-12.89-1.86-4.47-3.28-9.19-5.66-13.36-13.59-23.8-27.43-47.47-41.16-71.19-17.41-30.08-34.92-60.1-52.14-90.29-5.28-9.26-9.72-19-14.54-28.53Z"/><path class="cls-4" d="m286.72,458.2c-4.21-8.69-7.93-17.66-12.7-26.02-19.37-33.96-39.04-67.74-58.65-101.57-17.16-29.59-34.46-59.1-51.56-88.73-17.72-30.69-35.31-61.45-52.87-92.23-5.42-9.51-10.56-19.18-15.83-28.78,10.32,0,20.64,0,30.96,0,.69,2.51.89,5.3,2.14,7.49,11.02,19.35,22.28,38.57,33.37,57.89,25.11,43.73,50.09,87.52,75.26,131.21,23.33,40.51,46.78,80.95,70.35,121.32,2.34,4.01,5.86,7.32,8.83,10.96-.03,2.48-.06,4.96-.09,7.43-.37.34-.74.67-1.11,1.01-9.37,0-18.73,0-28.1,0Z"/><path class="cls-9" d="m316.01,449.75c-2.97-3.64-6.49-6.96-8.83-10.96-23.57-40.37-47.02-80.81-70.35-121.32-25.17-43.69-50.15-87.49-75.26-131.21-11.09-19.31-22.35-38.53-33.37-57.89-1.25-2.19-1.45-4.98-2.14-7.49,9.34,0,18.67,0,28.01,0,.43,1.87.44,3.97,1.34,5.57,8.89,15.6,17.81,31.19,27.05,46.58,1.15,1.92,4.17,2.72,6.32,4.04.14,8.05.36,16.1.4,24.15.09,15.8,4.87,19.32,19.25,14.05,7.44,12.58,14.98,25.11,22.31,37.76,15.79,27.26,31.41,54.62,47.22,81.87,15.2,26.19,30.54,52.28,45.83,78.42-8.76,10.82-7.53,23.78-7.78,36.42Z"/><path class="cls-26" d="m.48,284.64c0-21.1,0-42.2,0-63.3,1.89,1.6,4.41,2.84,5.59,4.86,23.53,40.37,46.86,80.85,70.41,121.2,1.26,2.17,4.12,3.4,6.23,5.07.13,9.75.42,19.51.32,29.26-.06,5.55,2.12,8.14,7.77,8,4.38-.1,8.77.21,13.15.34.78,2.28,1.21,4.75,2.39,6.8,8.09,14.15,16.52,28.1,24.44,42.35,3.36,6.04,5.73,12.64,8.55,18.98-12.28,0-24.56,0-36.84,0-4.08-8-7.82-16.19-12.29-23.96-27.08-47.09-54.27-94.12-81.62-141.06-1.92-3.3-5.36-5.73-8.09-8.56Z"/><path class="cls-7" d="m65.63,120.88c4.82,9.52,9.26,19.27,14.54,28.53,17.21,30.19,34.72,60.21,52.14,90.29,13.73,23.72,27.57,47.39,41.16,71.19,2.38,4.17,3.8,8.9,5.66,13.36-9.83,0-19.65,0-29.48,0-1.44-3.08-2.66-6.28-4.35-9.22-13.65-23.72-27.4-47.39-41.08-71.09-15.88-27.51-31.84-54.98-47.54-82.59-7.59-13.34-14.68-26.97-22-40.47,10.32,0,20.64,0,30.96,0Z"/><path class="cls-11" d="m34.67,120.88c7.32,13.5,14.41,27.13,22,40.47,15.71,27.61,31.66,55.08,47.54,82.59,13.68,23.7,27.44,47.36,41.08,71.09,1.69,2.94,2.91,6.14,4.35,9.22-10.32,0-20.64,0-30.95,0-1.86-4.47-3.28-9.19-5.66-13.36-11.52-20.19-23.32-40.23-34.98-60.34-19.63-33.88-39.34-67.72-58.77-101.72-5.17-9.05-9.42-18.62-14.09-27.94,9.83,0,19.65,0,29.48,0Z"/><path class="cls-5" d="m323.8,413.33c-15.28-26.14-30.63-52.23-45.83-78.42-15.81-27.25-31.43-54.61-47.22-81.87-7.33-12.65-14.87-25.18-22.31-37.76,7.16-4.52,14.32-9.04,21.48-13.56.73.63,1.69,1.13,2.14,1.92,17.14,29.67,34.21,59.38,51.34,89.06,17.37,30.1,34.86,60.13,52.11,90.29,3.35,5.86,5.87,12.2,8.77,18.32-6.83,4.01-13.66,8.02-20.49,12.02Z"/><path class="cls-12" d="m541.75,262.94c6.04.26,12.12.18,18.12.86,6.06.69,8.66,4.57,8.47,10.72-.24,7.58-.6,15.22.04,22.76,1.73,20.48,20.75,36.4,41.18,30.32,1.7,4.26,2.96,8.77,5.19,12.74,8.6,15.32,17.51,30.46,26.31,45.66,15.64,27.03,31.43,53.98,46.85,81.14,4.86,8.57,8.72,17.71,13.04,26.58-7.76,1.61-15.52,3.22-23.28,4.83-1.78-1.94-3.98-3.63-5.27-5.85-10.27-17.77-20.26-35.7-30.55-53.46-29.88-51.57-59.92-103.06-89.71-154.68-3.99-6.91-6.95-14.41-10.38-21.63Z"/><path class="cls-21" d="m5.19,120.88c4.67,9.33,8.92,18.9,14.09,27.94,19.42,34,39.13,67.84,58.77,101.72,11.66,20.12,23.46,40.15,34.98,60.34,2.38,4.17,3.8,8.9,5.66,13.36-10.32.02-20.64.05-30.95.07-.87-2.7-1.3-5.64-2.68-8.05-26-45.31-52.08-90.58-78.28-135.77-1.46-2.51-4.16-4.3-6.29-6.42-.21-16.48-.54-32.95-.4-49.42.01-1.28,3.33-2.52,5.11-3.78Z"/><path class="cls-16" d="m541.75,262.94c3.43,7.23,6.39,14.73,10.38,21.63,29.8,51.62,59.84,103.1,89.71,154.68,10.29,17.76,20.28,35.69,30.55,53.46,1.29,2.22,3.49,3.91,5.27,5.85-4.51,6.34-9.02,12.68-13.54,19.01-1.92-1.65-4.41-2.95-5.66-5.01-5.31-8.74-9.97-17.88-15.41-26.54-3.77-5.99-8.41-11.43-12.67-17.11.52-17.35-1.36-34.38-8.43-50.36-9.99-22.58-27.01-38.33-49.25-48.64-1.03-2.96-1.63-6.16-3.17-8.83-15.68-27.25-31.62-54.35-47.22-81.65-2.95-5.16-4.76-10.97-7.09-16.49,8.84,0,17.69,0,26.53,0Z"/><path class="cls-20" d="m345.61,141.68v-20.8c7.8,0,14.99,0,22.19,0,1.09,2.71,1.87,5.59,3.31,8.09,19.77,34.31,39.61,68.59,59.47,102.85,13.97,24.11,28,48.18,42.01,72.26-5.17,4.4-9.52,2.98-13.74-1.63-3.78-4.12-8.11-7.74-11.77-11.95-5.84-6.74-13.34-10.16-21.78-12.04-.94-3.23-1.28-6.8-2.91-9.64-23.36-40.67-46.85-81.26-70.48-121.77-1.31-2.25-4.16-3.6-6.3-5.37Z"/><path class="cls-5" d="m338.66,442.38c-.91-15.38,2.64-19.14,18.11-19.11,2.69,0,5.39.17,8.08.25,1.31,3.86,2.06,8.03,4.02,11.53,8.44,15.13,17.23,30.06,25.9,45.06,15.63,27.04,31.38,54.02,46.83,81.16,5.26,9.25,9.79,18.92,14.65,28.39-7.86,6.41-15.73,12.82-23.59,19.23-5.34-9.49-10.71-18.96-16.01-28.47-6.49-11.63-12.92-23.28-19.38-34.93,6.9-10.43,8.39-21.85,3.81-33.21-5.61-13.93-17.48-18.74-31.8-18.57-.7-2.79-.83-5.91-2.19-8.33-7.27-12.98-14.74-25.85-22.44-38.58-1.19-1.97-3.95-2.98-5.98-4.44Z"/><path class="cls-8" d="m472.59,304.08c-14.01-24.09-28.04-48.16-42.01-72.26-19.86-34.26-39.7-68.53-59.47-102.85-1.44-2.5-2.22-5.38-3.31-8.09,10.32,0,20.64,0,30.96,0,1.36,3.6,2.3,7.43,4.16,10.75,8.37,14.89,16.94,29.66,25.55,44.41,16.7,28.65,33.48,57.26,50.22,85.88-.6,9.91-.86,19.86-1.96,29.72-.48,4.25-2.7,8.3-4.13,12.44Z"/><path class="cls-3" d="m344.29,401.3c-2.9-6.12-5.42-12.46-8.77-18.32-17.26-30.16-34.75-60.19-52.11-90.29-17.13-29.68-34.2-59.39-51.34-89.06-.46-.79-1.42-1.28-2.14-1.92,6.12-3.93,12.24-7.86,18.36-11.79,1.93,4.21,3.54,8.6,5.84,12.6,15.59,27.18,31.32,54.27,47,81.39,17.4,30.09,34.94,60.09,52.12,90.3,4.89,8.59,8.75,17.77,13.08,26.68-7.35.13-14.69.27-22.04.4Z"/><path class="cls-27" d="m700.94,493.73c-4.32-8.88-8.18-18.01-13.04-26.58-15.42-27.16-31.21-54.11-46.85-81.14-8.8-15.2-17.71-30.35-26.31-45.66-2.23-3.97-3.48-8.48-5.19-12.74,7.35-5.53,14.7-11.06,22.05-16.59.76,2.04,1.27,4.22,2.33,6.08,8.09,14.12,16.16,28.27,24.55,42.22,2.94,4.89,6.77,9.25,10.19,13.85-3.83,8.36-6.72,17.18-3.9,26.19,4.14,13.24,12.96,22,27.33,24.02.29,1.4.25,3,.92,4.18,9.11,16.04,18.21,32.09,27.6,47.96,2.1,3.55,5.35,6.41,8.08,9.58-2.21,6.29-7.24,8.52-13.3,8.8-4.81.22-9.64-.1-14.46-.18Z"/><path class="cls-18" d="m389.69,418.68c4.12-5.36,8.24-10.72,12.36-16.09,1.83,1.43,4.28,2.49,5.38,4.34,7.78,13.11,15.18,26.45,22.98,39.55,1.47,2.47,4.25,4.17,6.43,6.22.23,15.86,2.25,31.21,9.13,45.89,8.37,17.86,21.62,31.07,37.18,42.44.28,2.31-.11,5,.95,6.87,14.13,25.01,28.55,49.86,42.69,74.87,5.72,10.12,10.94,20.51,16.39,30.78-6.85,0-13.7,0-20.56,0-.5-2.33-.5-4.93-1.59-6.95-4.77-8.82-9.61-17.62-14.94-26.1-2.08-3.31-5.51-5.77-8.32-8.61-2.09-4.31-4.18-8.62-6.26-12.93-.63-2.84-.63-6.02-1.99-8.45-7.53-13.44-15.41-26.68-23.12-40.02-17.26-29.86-34.44-59.76-51.74-89.59-8.21-14.14-16.63-28.16-24.96-42.23Z"/><path class="cls-28" d="m478.68,261.92c-16.74-28.62-33.52-57.23-50.22-85.88-8.6-14.75-17.18-29.53-25.55-44.41-1.86-3.31-2.8-7.15-4.16-10.75,10.32,0,20.64,0,30.96,0,1.22,3.41,1.96,7.09,3.73,10.18,16.14,28.24,32.35,56.43,48.77,84.5,5.27,9,11.22,17.61,16.86,26.39-8.18,5.25-16.56,10.29-20.4,19.97Z"/><path class="cls-10" d="m.48,284.64c2.73,2.83,6.17,5.26,8.09,8.56,27.34,46.94,54.54,93.96,81.62,141.06,4.47,7.77,8.21,15.96,12.29,23.96-8.88-.06-17.77-.12-26.65-.18-.78-2.96-.96-6.26-2.42-8.83-21.12-37.12-42.35-74.19-63.77-111.13-2.31-3.99-6.05-7.14-9.13-10.69,0-14.25-.01-28.5-.02-42.75Z"/><path class="cls-22" d="m543.18,653.55c-5.45-10.27-10.67-20.67-16.39-30.78-14.14-25-28.56-49.85-42.69-74.87-1.06-1.87-.67-4.56-.95-6.87,14.4,8.75,30.31,12.83,46.8,15.1,1.03,2.46,1.81,5.07,3.13,7.37,8.18,14.13,16.34,28.28,24.82,42.23,2.91,4.79,6.73,9.04,10.13,13.54.09,7.52.08,15.05.31,22.56.21,6.65-2.9,10.85-9.31,11.65-5.21.65-10.57.09-15.86.06Z"/><path class="cls-13" d="m.48,174.08c2.13,2.12,4.83,3.91,6.29,6.42,26.21,45.19,52.29,90.46,78.28,135.77,1.38,2.4,1.81,5.35,2.68,8.05-1.55,2.6-4.13,5.08-4.43,7.82-.75,6.71-.46,13.54-.59,20.33-2.11-1.67-4.97-2.91-6.23-5.07-23.55-40.35-46.88-80.83-70.41-121.2-1.18-2.02-3.69-3.26-5.59-4.86,0-15.75,0-31.5,0-47.25Z"/><path class="cls-14" d="m366.33,400.9c-4.33-8.91-8.2-18.09-13.08-26.68-17.18-30.21-34.72-60.22-52.12-90.3-15.69-27.12-31.42-54.22-47-81.39-2.29-4-3.91-8.39-5.84-12.6,4.45-2.86,8.9-5.71,13.36-8.57,7.32,13.47,14.4,27.09,22.01,40.39,19.14,33.46,38.45,66.81,57.86,100.12,3.51,6.02,7.77,11.6,11.68,17.38-.94,12.5,3.48,22.87,12.46,31.46,3.36,3.22,6.37,6.83,9.94,9.79,5.14,4.26,7.28,9.63,4.83,15.59-2.55,6.2-8.65,5.28-14.08,4.81Z"/><path class="cls-4" d="m112.74,97.83c-13.24,0-26.48,0-39.72,0-.52-1.61-.77-3.37-1.58-4.81-11.37-19.94-22.73-39.88-34.36-59.66-1.58-2.69-4.65-4.5-7.03-6.72.86-3.04,1.63-6.1,2.6-9.1C38.62-.82,40-1.64,59.68,1.27c.41,1.39.57,2.92,1.27,4.15,11.91,20.73,24.02,41.35,35.81,62.15,5.62,9.92,10.67,20.17,15.98,30.27Z"/><path class="cls-2" d="m345.61,141.68c2.13,1.77,4.98,3.12,6.3,5.37,23.64,40.51,47.13,81.1,70.48,121.77,1.63,2.84,1.97,6.41,2.91,9.64-7.83,1.6-15.65,3.2-23.48,4.8-1.75-1.96-3.88-3.7-5.18-5.92-14.96-25.72-29.72-51.55-44.75-77.23-1.31-2.24-4.16-3.59-6.29-5.36,0-17.69,0-35.38,0-53.07Z"/><path class="cls-16" d="m499.08,241.95c-5.64-8.79-11.59-17.39-16.86-26.39-16.42-28.07-32.64-56.27-48.77-84.5-1.77-3.09-2.51-6.77-3.73-10.18,9.83,0,19.65,0,29.48,0,.75,2.54,1.05,5.33,2.33,7.57,13.46,23.47,27.2,46.77,40.59,70.28,8.07,14.17,15.63,28.62,23.42,42.94-8.82.1-17.64.19-26.45.29Z"/><path class="cls-15" d="m.5,327.38c3.08,3.54,6.82,6.7,9.13,10.69,21.43,36.95,42.65,74.01,63.77,111.13,1.46,2.57,1.65,5.86,2.42,8.83-9.79.06-19.58.12-29.36.17-.62-2.07-.86-4.35-1.91-6.17-12.46-21.71-24.96-43.39-37.7-64.93-1.3-2.21-4.19-3.47-6.35-5.18,0-18.18,0-36.36,0-54.54Z"/><path class="cls-18" d="m353.19,339.25c-3.91-5.78-8.18-11.36-11.68-17.38-19.4-33.3-38.72-66.66-57.86-100.12-7.61-13.31-14.69-26.92-22.01-40.39,3.35-3.84,6.7-3.56,10.72-.68,6.64,4.76,13.6,9.08,20.43,13.59.76,2.77,1.01,5.84,2.38,8.27,12.24,21.71,24.58,43.36,37.1,64.91,10.29,17.73,20.85,35.3,31.29,52.94-3.46,6.29-6.91,12.57-10.37,18.86Z"/><path class="cls-27" d="m507.82,97.8c-11.28,0-22.55,0-33.83,0-.74-2.55-1.02-5.36-2.3-7.61-11.99-21.05-24.28-41.93-36.19-63.02-4.75-8.41-8.76-17.25-13.1-25.89,11.28,0,22.55,0,33.83,0,1.17,3.43,1.82,7.15,3.59,10.24,13.61,23.78,27.51,47.39,41.13,71.16,2.74,4.78,4.61,10.06,6.88,15.1Z"/><path class="cls-12" d="m525.53,241.67c-7.79-14.32-15.36-28.78-23.42-42.94-13.38-23.51-27.13-46.81-40.59-70.28-1.28-2.23-1.57-5.03-2.33-7.57,9.83,0,19.65,0,29.48,0,.22.95.22,2.02.68,2.83,13.02,22.71,26.03,45.43,39.26,68.01.89,1.52,3.47,2.04,5.27,3.03.11,12.94-.1,25.89.46,38.81.3,6.92-2,9.6-8.8,8.12Z"/><path class="cls-24" d="m205.7,1.26c10.78,0,21.57,0,32.35,0,.51,2.09.57,4.45,1.6,6.25,11.85,20.67,24.03,41.16,35.73,61.91,5.2,9.22,9.53,18.92,14.25,28.4-10.78,0-21.57,0-32.35,0-.52-2.09-.58-4.45-1.62-6.25-11.85-20.67-24.03-41.16-35.74-61.92-5.2-9.21-9.52-18.92-14.24-28.4Z"/><path class="cls-28" d="m331.01,1.28c10.78,0,21.57,0,32.35,0,.35,2.13.14,4.59,1.15,6.35,10.79,18.92,21.93,37.63,32.64,56.59,6.23,11.02,11.88,22.38,17.8,33.59-10.78,0-21.56,0-32.35,0-1.18-3.43-1.85-7.15-3.61-10.24-13.46-23.59-27.22-47.01-40.68-70.6-2.85-4.99-4.88-10.45-7.29-15.69Z"/><path class="cls-2" d="m289.65,97.83c-4.72-9.48-9.06-19.19-14.25-28.4-11.71-20.75-23.88-41.24-35.73-61.91-1.03-1.8-1.09-4.15-1.6-6.25,10.32,0,20.64,0,30.96,0,.73,2.05,1.16,4.27,2.22,6.13,11.57,20.08,23.38,40.02,34.83,60.17,5.64,9.91,10.69,20.16,16,30.26-10.81,0-21.62,0-32.42,0Z"/><path class="cls-28" d="m515.22,262.94c2.33,5.51,4.14,11.33,7.09,16.49,15.6,27.29,31.54,54.4,47.22,81.65,1.54,2.67,2.14,5.87,3.17,8.83-12.32-4.81-24.99-7.85-38.33-7.37-.59-2.09-.79-4.41-1.83-6.24-9.45-16.58-18.97-33.11-28.68-49.53-1.12-1.89-3.5-3.04-5.29-4.53.14-7.99.34-15.98.41-23.97.1-12.29,3.91-15.92,16.24-15.32Z"/><path class="cls-8" d="m331.01,1.28c2.41,5.24,4.44,10.7,7.29,15.69,13.47,23.59,27.22,47.01,40.68,70.6,1.77,3.09,2.44,6.81,3.61,10.24-10.32,0-20.64,0-30.96,0-.74-2.55-1.01-5.37-2.29-7.61-11.99-21.06-24.29-41.94-36.2-63.04-4.75-8.42-8.75-17.25-13.1-25.9,10.32,0,20.64,0,30.96.01Z"/><path class="cls-28" d="m630.39,468.91c4.25,5.68,8.9,11.12,12.67,17.11,5.44,8.66,10.1,17.79,15.41,26.54,1.25,2.06,3.74,3.36,5.66,5.01-2.45,15.26,3.91,26.71,15.06,36.54,4.44,3.91,8.04,8.91,11.47,13.79,3.17,4.51,1.35,8.99-2.09,12.55-4.9,5.09-10.13,9.86-15.22,14.76-.63-1.57-1.09-3.23-1.93-4.69-14.08-24.57-28.13-49.16-42.41-73.62-2.64-4.53-6.26-8.49-9.43-12.71,3.61-11.77,7.21-23.53,10.81-35.3Z"/><path class="cls-17" d="m507.82,97.8c-2.27-5.05-4.14-10.32-6.88-15.1-13.61-23.78-27.52-47.39-41.13-71.16-1.77-3.09-2.42-6.81-3.59-10.24,11.49-.18,23-.61,34.48-.31,1.99.05,4.93,2.76,5.71,4.88,10.36,28.14,20.4,56.4,30.54,84.63.8,2.24,1.71,4.45,2.82,7.31h-21.96Z"/><path class="cls-3" d="m115.78,1.26c10.29,0,20.58,0,30.87,0,.95,2.97,1.41,6.22,2.93,8.86,13.59,23.61,27.47,47.04,41,70.68,3.08,5.38,5.14,11.34,7.66,17.04-10.29,0-20.58,0-30.87,0-.35-2.14-.15-4.59-1.15-6.36-11.37-20-23.05-39.83-34.38-59.86-5.64-9.96-10.72-20.23-16.06-30.36Z"/><path class="cls-20" d="m300.05,1.27c4.34,8.65,8.35,17.48,13.1,25.9,11.91,21.1,24.21,41.99,36.2,63.04,1.28,2.24,1.55,5.06,2.29,7.61-9.86,0-19.71,0-29.57,0-5.32-10.1-10.36-20.35-16-30.26-11.46-20.14-23.26-40.09-34.83-60.17-1.07-1.85-1.5-4.08-2.22-6.13,10.35,0,20.69,0,31.04,0Z"/><path class="cls-12" d="m422.4,1.29c4.34,8.64,8.35,17.47,13.1,25.89,11.91,21.09,24.2,41.97,36.19,63.02,1.28,2.24,1.56,5.06,2.3,7.61-9.83,0-19.66,0-29.48,0-1.06-2.71-1.81-5.59-3.23-8.09-12.22-21.39-24.63-42.67-36.82-64.07-4.55-7.99-8.68-16.23-13.01-24.35,10.32,0,20.63,0,30.95,0Z"/><path class="cls-22" d="m205.7,1.26c4.72,9.48,9.04,19.19,14.24,28.4,11.71,20.76,23.88,41.25,35.74,61.92,1.03,1.8,1.1,4.15,1.62,6.25-9.83,0-19.66,0-29.49,0-1.16-2.93-1.99-6.05-3.54-8.75-11.53-20.11-23.31-40.08-34.79-60.22-5.16-9.06-9.83-18.4-14.73-27.61,10.32,0,20.64,0,30.96,0Z"/><path class="cls-5" d="m115.78,1.26c5.34,10.13,10.42,20.4,16.06,30.36,11.33,20.03,23.01,39.86,34.38,59.86,1,1.77.8,4.23,1.15,6.36-9.83,0-19.66,0-29.48,0-.62-2.31-.79-4.89-1.94-6.9-14.04-24.47-28.32-48.79-42.3-73.29-2.95-5.17-4.93-10.9-7.35-16.38,9.83,0,19.66,0,29.49,0Z"/><path class="cls-22" d="m363.56,320.39c-10.44-17.64-21-35.21-31.29-52.94-12.51-21.55-24.85-43.2-37.1-64.91-1.37-2.43-1.61-5.5-2.38-8.27,11.16,6.98,22.29,14.02,33.53,20.88,1.77,1.08,4.06,1.32,6.11,1.95,3.94,7.8,7.5,15.81,11.88,23.35,12.13,20.86,24.6,41.52,36.93,62.25-5.89,5.9-11.79,11.8-17.68,17.7Z"/><path class="cls-16" d="m391.45,1.29c4.32,8.12,8.45,16.36,13.01,24.35,12.19,21.4,24.61,42.68,36.82,64.07,1.43,2.5,2.17,5.39,3.23,8.09-9.85,0-19.71,0-29.56,0-5.91-11.21-11.56-22.56-17.8-33.59-10.72-18.96-21.85-37.67-32.64-56.59-1.01-1.76-.8-4.22-1.15-6.35,9.36,0,18.73,0,28.09.01Z"/><path class="cls-18" d="m174.75,1.26c4.89,9.21,9.56,18.55,14.73,27.61,11.48,20.14,23.26,40.11,34.79,60.22,1.55,2.71,2.38,5.83,3.54,8.75-9.85,0-19.71,0-29.56,0-2.53-5.7-4.59-11.66-7.66-17.04-13.53-23.64-27.41-47.07-41-70.68-1.52-2.64-1.98-5.89-2.93-8.86,9.36,0,18.73,0,28.09,0Z"/><path class="cls-8" d="m619.58,504.21c3.17,4.22,6.79,8.18,9.43,12.71,14.28,24.46,28.32,49.05,42.41,73.62.83,1.45,1.29,3.12,1.93,4.69-6.47,6.08-12.95,12.15-19.42,18.23-1.49-1.92-3.21-3.7-4.42-5.78-9.78-16.92-19.55-33.86-29.16-50.88-5.75-10.17-11.22-20.5-16.82-30.76,5.35-7.27,10.7-14.55,16.06-21.82Z"/><path class="cls-7" d="m191.16,343.63c4.58,6.38,9.69,12.44,13.65,19.18,16.48,28.03,32.69,56.22,48.79,84.47,1.87,3.27,2.46,7.27,3.65,10.93-9.83,0-19.65,0-29.48,0-3.4-6.95-6.52-14.05-10.26-20.81-9.2-16.6-18.69-33.04-28.06-49.55.49-2.82,1.35-5.63,1.4-8.46.23-11.92.23-23.84.31-35.76Z"/><path class="cls-22" d="m436.84,452.7c-2.18-2.05-4.95-3.75-6.43-6.22-7.81-13.1-15.2-26.44-22.98-39.55-1.1-1.86-3.56-2.92-5.38-4.34,3.61-14.96.95-27.97-11.44-38.22-3.57-2.96-6.68-6.49-9.9-9.85-7.11-7.4-7.31-12.17-.48-19.56,3.47-3.76,7.39-7.12,11.1-10.66,16.21,28.28,32.38,56.58,48.72,84.78,1.52,2.62,4.14,4.6,6.24,6.88-3.15,12.25-6.29,24.49-9.44,36.74Z"/><path class="cls-24" d="m446.28,415.96c-2.11-2.28-4.73-4.26-6.24-6.88-16.34-28.2-32.51-56.51-48.72-84.78,6.39-6.39,12.78-12.77,19.17-19.16,12.41,21.56,24.72,43.18,37.29,64.64,4.52,7.71,9.68,15.04,14.54,22.54-5.34,7.88-10.69,15.76-16.03,23.64Z"/><path class="cls-14" d="m389.69,418.68c8.33,14.07,16.75,28.09,24.96,42.23,17.31,29.83,34.49,59.73,51.74,89.59,7.71,13.34,15.59,26.58,23.12,40.02,1.36,2.43,1.36,5.61,1.99,8.45-6.86-3.49-13.72-6.98-20.58-10.47-.77-2.52-1.13-5.26-2.38-7.52-4.61-8.33-9.54-16.49-14.31-24.74-21.77-37.65-43.6-75.26-65.2-113.01-3.71-6.49-6.4-13.57-9.56-20.38,3.41-1.39,6.82-2.79,10.23-4.18Z"/><path class="cls-24" d="m381.24,302.7c-12.33-20.74-24.8-41.4-36.93-62.25-4.38-7.54-7.94-15.55-11.88-23.35,9.69-.59,12.62-3.67,12.9-13.57.08-2.93.18-5.86.28-8.78,2.13,1.76,4.97,3.11,6.29,5.36,15.03,25.67,29.8,51.51,44.75,77.23,1.29,2.23,3.43,3.96,5.18,5.92-6.86,6.48-13.72,12.96-20.58,19.45Z"/><path class="cls-3" d="m379.47,422.86c3.16,6.81,5.85,13.89,9.56,20.38,21.6,37.75,43.44,75.36,65.2,113.01,4.77,8.25,9.7,16.41,14.31,24.74,1.25,2.25,1.61,5,2.38,7.52-4.89.39-9.78.78-14.68,1.17-4.86-9.48-9.38-19.15-14.65-28.39-15.45-27.14-31.2-54.12-46.83-81.16-8.67-15-17.45-29.93-25.9-45.06-1.95-3.5-2.71-7.67-4.02-11.53,4.87-.22,9.74-.45,14.61-.67Z"/><path class="cls-9" d="m86.3,1.27c2.42,5.47,4.4,11.2,7.35,16.38,13.98,24.5,28.26,48.83,42.3,73.29,1.15,2.01,1.32,4.59,1.94,6.9-8.38,0-16.76,0-25.15,0-5.31-10.1-10.36-20.35-15.98-30.27-11.79-20.8-23.89-41.42-35.81-62.15-.7-1.22-.86-2.76-1.27-4.15,8.87,0,17.74,0,26.61,0Z"/><path class="cls-2" d="m462.32,392.32c-4.87-7.5-10.03-14.83-14.54-22.54-12.57-21.46-24.88-43.08-37.29-64.64,8.07-6.17,13.54-5.92,20.58.6,7.84,7.26,15.84,14.34,23.77,21.5,2.46,5.02,4.61,10.21,7.44,15.01,6.67,11.35,13.65,22.52,20.51,33.77-6.82,5.43-13.64,10.87-20.46,16.3Z"/><path class="cls-17" d="m668.67,373.17c-3.42-4.6-7.25-8.96-10.19-13.85-8.39-13.95-16.45-28.09-24.55-42.22-1.07-1.86-1.57-4.05-2.33-6.08,1.45-1.62,2.84-3.32,4.38-4.85,7.49-7.46,14.75-7.61,22.2-.26,9.57,9.42,19.05,18.94,28.49,28.49,6.88,6.96,7.25,13.14.67,20.27-5.94,6.43-12.43,12.36-18.67,18.51Z"/><path class="cls-11" d="m189.45,387.85c9.37,16.51,18.86,32.95,28.06,49.55,3.74,6.76,6.86,13.86,10.26,20.81-10.81,0-21.62,0-32.43,0-.84-3.01-1.14-6.32-2.61-8.98-6.38-11.55-13.35-22.78-19.6-34.4-4.32-8.02-7.82-16.49-11.69-24.75,3.15-.13,6.32-.15,9.46-.42,6.19-.53,12.37-1.19,18.55-1.8Z"/><path class="cls-20" d="m603.52,526.04c5.6,10.26,11.07,20.59,16.82,30.76,9.62,17.02,19.38,33.96,29.16,50.88,1.2,2.08,2.93,3.86,4.42,5.78-5.13,5.4-10.21,3.26-14.74-.59-4.45-3.79-7.89-8.9-12.64-12.18-6.75-4.66-14.29-8.17-21.49-12.17-2.44-5.72-4.65-11.56-7.36-17.14-4.78-9.83-9.88-19.5-14.84-29.24,6.89-5.36,13.78-10.73,20.67-16.09Z"/><path class="cls-6" d="m.5,381.93c2.15,1.7,5.05,2.97,6.35,5.18,12.74,21.54,25.24,43.23,37.7,64.93,1.05,1.82,1.29,4.1,1.91,6.17-15.18,0-30.36,0-45.6,0-.33-.75-.86-1.41-.86-2.07.14-24.74.32-49.47.5-74.21Z"/><path class="cls-21" d="m161.43,390.07c3.87,8.27,7.37,16.73,11.69,24.75,6.26,11.62,13.23,22.84,19.6,34.4,1.47,2.66,1.77,5.97,2.61,8.98-9.83,0-19.65,0-29.48,0-.72-2.79-.91-5.88-2.27-8.33-6.51-11.76-13.57-23.22-19.95-35.05-4.32-8.02-7.82-16.49-11.69-24.75,9.83,0,19.65,0,29.48,0Z"/><path class="cls-27" d="m533.87,194.74c-1.79-.99-4.38-1.51-5.27-3.03-13.23-22.59-26.24-45.3-39.26-68.01-.46-.81-.46-1.88-.68-2.83,14.89,0,29.79,0,45.21,0v73.87Z"/><path class="cls-13" d="m131.95,390.07c3.87,8.27,7.37,16.73,11.69,24.75,6.37,11.83,13.44,23.28,19.95,35.05,1.35,2.45,1.54,5.54,2.27,8.33-8.85,0-17.69,0-26.54,0-2.82-6.34-5.19-12.94-8.55-18.98-7.91-14.25-16.35-28.2-24.44-42.35-1.17-2.05-1.61-4.52-2.39-6.8,9.34,0,18.67,0,28.01,0Z"/><path class="cls-9" d="m397.26,545.51c6.46,11.64,12.89,23.3,19.38,34.93,5.3,9.51,10.67,18.98,16.01,28.47-8.33,9.86-14.29,10.26-23.11,1.48-9.72-9.67-19.47-19.31-29.05-29.11-6.87-7.02-7.12-11.88-.55-18.95,5.47-5.89,11.53-11.23,17.33-16.81Z"/><path class="cls-19" d="m30.05,26.64c2.38,2.22,5.44,4.03,7.03,6.72,11.63,19.78,22.99,39.73,34.36,59.66.82,1.44,1.07,3.2,1.58,4.81-8.84,0-17.69,0-26.53,0-.61-2.33-.79-4.89-1.91-6.94-6.12-11.12-12.34-22.19-18.89-33.05-.99-1.65-3.9-2.14-5.92-3.17,3.43-9.34,6.85-18.68,10.28-28.02Z"/><path class="cls-8" d="m498.57,302.23c1.79,1.49,4.17,2.64,5.29,4.53,9.71,16.42,19.24,32.96,28.68,49.53,1.04,1.83,1.24,4.15,1.83,6.24-9.83,1-19.66,2-29.48,3-7.75-13.42-15.5-26.83-23.26-40.25,8.52-5.57,14.46-13.05,16.94-23.06Z"/><path class="cls-22" d="m314.74,181.25c-12.49-7.77-24.91-15.64-37.51-23.22-3.44-2.07-7.41-3.24-11.14-4.82-1.28-2.86-2.43-5.79-3.86-8.58-4.06-7.95-8.23-15.84-12.36-23.75,11.3,0,22.6,0,33.9,0,5.89,11.11,11.9,22.16,17.65,33.33,4.6,8.93,8.89,18.02,13.32,27.04Z"/><path class="cls-24" d="m568.03,619.27c-3.4-4.5-7.21-8.75-10.13-13.54-8.48-13.95-16.64-28.1-24.82-42.23-1.33-2.29-2.1-4.9-3.13-7.37,8.85-.98,17.69-1.96,26.54-2.94.37,1.63.38,3.48,1.18,4.86,6.16,10.71,12.37,21.4,18.83,31.93,1.12,1.83,3.48,2.89,5.27,4.3-7.49,6.72-12.36,14.9-13.74,24.98Z"/><path class="cls-24" d="m314.74,181.25c-4.43-9.02-8.72-18.11-13.32-27.04-5.75-11.18-11.76-22.23-17.65-33.33,12.86,0,25.72,0,39.01,0v64.83c-3.36-1.86-5.7-3.15-8.04-4.45Z"/><path class="cls-2" d="m581.77,594.29c-1.79-1.41-4.15-2.48-5.27-4.3-6.46-10.53-12.67-21.22-18.83-31.93-.8-1.39-.81-3.23-1.18-4.86,8.79-3.68,17.57-7.37,26.36-11.05,4.96,9.74,10.06,19.41,14.84,29.24,2.72,5.59,4.93,11.42,7.36,17.14-7.76,1.93-15.52,3.85-23.28,5.78Z"/><path class="cls-20" d="m481.63,325.29c7.75,13.42,15.5,26.83,23.26,40.25-7.37,3.49-14.75,6.99-22.12,10.48-6.86-11.24-13.84-22.41-20.51-33.77-2.82-4.8-4.98-10-7.44-15.01,8.93-.65,17.87-1.3,26.8-1.95Z"/><path class="cls-17" d="m728.7,485.12c-2.72-3.18-5.98-6.04-8.08-9.58-9.4-15.87-18.49-31.92-27.6-47.96-.67-1.19-.63-2.78-.92-4.18,7.85-.04,15.7-.26,23.55-.07,8.78.22,13.64,3.74,13.8,11.87.33,16.63-.43,33.28-.74,49.93Z"/><path class="cls-18" d="m249.87,120.88c4.13,7.91,8.3,15.8,12.36,23.75,1.42,2.79,2.58,5.71,3.86,8.58-6,3.4-11.98,6.84-18.01,10.19-2.28,1.27-4.66,2.35-6.99,3.51-7.21-12.85-14.49-25.67-21.55-38.6-1.2-2.2-1.42-4.94-2.09-7.43,10.81,0,21.62,0,32.42,0Z"/><path class="cls-5" d="m188.79,177.07c-2.15-1.32-5.17-2.12-6.32-4.04-9.24-15.4-18.17-30.98-27.05-46.58-.91-1.59-.92-3.7-1.34-5.57,11.42,0,22.84,0,34.72,0v56.19Z"/><path class="cls-7" d="m19.77,54.66c2.02,1.03,4.93,1.52,5.92,3.17,6.55,10.87,12.77,21.94,18.89,33.05,1.13,2.05,1.3,4.62,1.91,6.94-13.57,0-27.14,0-42.68,0,5.59-15.12,10.78-29.14,15.96-43.16Z"/><path class="cls-3" d="m217.45,120.88c.67,2.49.89,5.23,2.09,7.43,7.06,12.94,14.34,25.75,21.55,38.6-9.35,6.4-18.7,12.8-29.11,19.92-.3-3.38-.63-5.4-.64-7.41-.04-17.58.1-35.15-.11-52.73-.06-4.73,1.19-7.02,6.21-5.82Z"/><path class="cls-9" d="m338.66,442.38c2.03,1.46,4.79,2.47,5.98,4.44,7.7,12.73,15.17,25.6,22.44,38.58,1.36,2.43,1.49,5.54,2.19,8.33-5.88.08-11.76.33-17.64.2-7.66-.16-13.23-5.79-13.23-13.33,0-12.74.16-25.48.25-38.22Z"/><path class="cls-14" d="m497.76,611.9c2.82,2.85,6.25,5.3,8.32,8.61,5.33,8.48,10.18,17.28,14.94,26.1,1.09,2.01,1.09,4.62,1.59,6.95-4.37.1-8.87.87-13.09.14-6.64-1.16-10.65-5.02-10.64-12.6.02-9.73-.72-19.47-1.13-29.2Z"/><path class="cls-19" d="m314.82,458.2c.37-.34.74-.67,1.11-1.01-.37.34-.74.67-1.11,1.01Z"/><path class="cls-25" d="m65.63,120.88c9.83,0,19.65,0,29.48,0,5.27,9.6,10.41,19.27,15.83,28.78,17.56,30.78,35.16,61.54,52.87,92.23,17.1,29.63,34.4,59.14,51.56,88.73,19.61,33.82,39.28,67.61,58.65,101.57,4.77,8.37,8.5,17.33,12.7,26.02-9.82,0-19.65,0-29.47,0-1.19-3.66-1.78-7.66-3.65-10.93-16.1-28.25-32.31-56.44-48.79-84.47-3.96-6.74-9.07-12.81-13.65-19.18-.08-2.16-.23-4.32-.24-6.49-.06-12.04-.18-12.18-11.8-12.89-1.86-4.47-3.28-9.19-5.66-13.36-13.59-23.8-27.43-47.47-41.16-71.19-17.41-30.08-34.92-60.1-52.14-90.29-5.28-9.26-9.72-19-14.54-28.53Zm249.19,337.32c.37-.34.74-.67,1.11-1.01.03-2.48.06-4.96.09-7.43-2.97-3.64-6.49-6.96-8.83-10.96-23.57-40.37-47.02-80.81-70.35-121.32-25.17-43.69-50.15-87.49-75.26-131.21-11.09-19.31-22.35-38.53-33.37-57.89-1.25-2.19-1.45-4.98-2.14-7.49-10.32,0-20.64,0-30.96,0,5.27,9.6,10.41,19.27,15.83,28.78,17.56,30.78,35.16,61.54,52.87,92.23,17.1,29.63,34.4,59.14,51.56,88.73,19.61,33.82,39.28,67.61,58.65,101.57,4.77,8.37,8.5,17.33,12.7,26.02,9.37,0,18.73,0,28.1,0Zm8.98-44.87c-15.28-26.14-30.63-52.23-45.83-78.42-15.81-27.25-31.43-54.61-47.22-81.87-7.33-12.65-14.87-25.18-22.31-37.76-14.38,5.27-19.17,1.74-19.25-14.05-.04-8.05-.26-16.1-.4-24.15-2.15-1.32-5.17-2.12-6.32-4.04-9.24-15.4-18.17-30.98-27.05-46.58-.91-1.59-.92-3.7-1.34-5.57-9.34,0-18.67,0-28.01,0,.69,2.51.89,5.3,2.14,7.49,11.02,19.35,22.28,38.57,33.37,57.89,25.11,43.73,50.09,87.52,75.26,131.21,23.33,40.51,46.78,80.95,70.35,121.32,2.34,4.01,5.86,7.32,8.83,10.96.25-12.64-.98-25.6,7.78-36.42ZM8.57,293.19c27.34,46.94,54.54,93.96,81.62,141.06,4.47,7.77,8.21,15.96,12.29,23.96,12.28,0,24.56,0,36.84,0-2.82-6.34-5.19-12.94-8.55-18.98-7.91-14.25-16.35-28.2-24.44-42.35-1.17-2.05-1.61-4.52-2.39-6.8-4.38-.13-8.77-.45-13.15-.34-5.65.14-7.83-2.46-7.77-8,.1-9.75-.19-19.5-.32-29.26-2.11-1.67-4.97-2.91-6.23-5.07-23.55-40.35-46.88-80.83-70.41-121.2-1.18-2.02-3.69-3.26-5.59-4.86,0,21.1,0,42.2,0,63.3,2.73,2.83,6.17,5.26,8.09,8.56Zm26.1-172.32c7.32,13.5,14.41,27.13,22,40.47,15.71,27.61,31.66,55.08,47.54,82.59,13.68,23.7,27.44,47.36,41.08,71.09,1.69,2.94,2.91,6.14,4.35,9.22,9.83,0,19.65,0,29.48,0-1.86-4.47-3.28-9.19-5.66-13.36-13.59-23.8-27.43-47.47-41.16-71.19-17.41-30.08-34.92-60.1-52.14-90.29-5.28-9.26-9.72-19-14.54-28.53-10.32,0-20.64,0-30.96,0Zm-29.48,0c4.67,9.33,8.92,18.9,14.09,27.94,19.42,34,39.13,67.84,58.77,101.72,11.66,20.12,23.46,40.15,34.98,60.34,2.38,4.17,3.8,8.9,5.66,13.36,10.32,0,20.64,0,30.95,0-1.44-3.08-2.66-6.28-4.35-9.22-13.65-23.72-27.4-47.39-41.08-71.09-15.88-27.51-31.84-54.98-47.54-82.59-7.59-13.34-14.68-26.97-22-40.47-9.83,0-19.65,0-29.48,0Zm339.1,280.43c-2.9-6.12-5.42-12.46-8.77-18.32-17.26-30.16-34.75-60.19-52.11-90.29-17.13-29.68-34.2-59.39-51.34-89.06-.46-.79-1.42-1.28-2.14-1.92-7.16,4.52-14.32,9.04-21.48,13.56,7.44,12.58,14.98,25.11,22.31,37.76,15.79,27.26,31.41,54.62,47.22,81.87,15.2,26.19,30.54,52.28,45.83,78.42,6.83-4.01,13.66-8.02,20.49-12.02Zm207.84-116.73c29.8,51.62,59.84,103.1,89.71,154.68,10.29,17.76,20.28,35.69,30.55,53.46,1.29,2.22,3.49,3.91,5.27,5.85,7.76-1.61,15.52-3.22,23.28-4.83-4.32-8.88-8.18-18.01-13.04-26.58-15.42-27.16-31.21-54.11-46.85-81.14-8.8-15.2-17.71-30.35-26.31-45.66-2.23-3.97-3.48-8.48-5.19-12.74-20.43,6.08-39.45-9.84-41.18-30.32-.64-7.54-.28-15.18-.04-22.76.2-6.16-2.41-10.03-8.47-10.72-5.99-.68-12.07-.61-18.12-.86,3.43,7.23,6.39,14.73,10.38,21.63ZM.08,124.66c-.14,16.47.19,32.95.4,49.42,2.13,2.12,4.83,3.91,6.29,6.42,26.21,45.19,52.29,90.46,78.28,135.77,1.38,2.4,1.81,5.35,2.68,8.05,10.32-.02,20.64-.05,30.95-.07-1.86-4.47-3.28-9.19-5.66-13.36-11.52-20.19-23.32-40.23-34.98-60.34-19.63-33.88-39.34-67.72-58.77-101.72-5.17-9.05-9.42-18.62-14.09-27.94-1.78,1.26-5.1,2.51-5.11,3.78Zm515.14,138.28c2.33,5.51,4.14,11.33,7.09,16.49,15.6,27.29,31.54,54.4,47.22,81.65,1.54,2.67,2.14,5.87,3.17,8.83,22.24,10.32,39.26,26.06,49.25,48.64,7.07,15.98,8.96,33.02,8.43,50.36,4.25,5.68,8.9,11.12,12.67,17.11,5.44,8.66,10.1,17.79,15.41,26.54,1.25,2.06,3.74,3.36,5.66,5.01,4.51-6.34,9.02-12.68,13.54-19.01-1.78-1.94-3.98-3.63-5.27-5.85-10.27-17.77-20.26-35.7-30.55-53.46-29.88-51.57-59.92-103.06-89.71-154.68-3.99-6.91-6.95-14.41-10.38-21.63-8.84,0-17.69,0-26.53,0Zm-163.32-115.9c23.64,40.51,47.13,81.1,70.48,121.77,1.63,2.84,1.97,6.41,2.91,9.64,8.44,1.88,15.94,5.31,21.78,12.04,3.66,4.21,7.99,7.84,11.77,11.95,4.22,4.6,8.57,6.03,13.74,1.63-14.01-24.09-28.04-48.16-42.01-72.26-19.86-34.26-39.7-68.53-59.47-102.85-1.44-2.5-2.22-5.38-3.31-8.09-7.2,0-14.39,0-22.19,0v20.8c2.13,1.77,4.98,3.12,6.3,5.37Zm-7.26,299.77c7.7,12.73,15.17,25.6,22.44,38.58,1.36,2.43,1.49,5.54,2.19,8.33,14.32-.17,26.19,4.63,31.8,18.57,4.58,11.36,3.09,22.78-3.81,33.21,6.46,11.64,12.89,23.3,19.38,34.93,5.3,9.51,10.67,18.98,16.01,28.47,7.86-6.41,15.73-12.82,23.59-19.23-4.86-9.48-9.38-19.14-14.65-28.39-15.45-27.14-31.2-54.12-46.83-81.16-8.67-15-17.45-29.93-25.9-45.06-1.95-3.5-2.71-7.67-4.02-11.53-2.69-.09-5.38-.25-8.08-.25-15.47-.03-19.02,3.73-18.11,19.11,2.03,1.46,4.79,2.47,5.98,4.44Zm132.08-155.18c1.1-9.86,1.36-19.81,1.96-29.72-16.74-28.62-33.52-57.23-50.22-85.88-8.6-14.75-17.18-29.53-25.55-44.41-1.86-3.31-2.8-7.15-4.16-10.75-10.32,0-20.64,0-30.96,0,1.09,2.71,1.87,5.59,3.31,8.09,19.77,34.31,39.61,68.59,59.47,102.85,13.97,24.11,28,48.18,42.01,72.26,1.43-4.14,3.66-8.19,4.13-12.44Zm-110.39,109.26c-4.33-8.91-8.2-18.09-13.08-26.68-17.18-30.21-34.72-60.22-52.12-90.3-15.69-27.12-31.42-54.22-47-81.39-2.29-4-3.91-8.39-5.84-12.6-6.12,3.93-12.24,7.86-18.36,11.79.73.63,1.69,1.13,2.14,1.92,17.14,29.67,34.21,59.38,51.34,89.06,17.37,30.1,34.86,60.13,52.11,90.29,3.35,5.86,5.87,12.2,8.77,18.32,7.35-.13,14.69-.27,22.04-.4Zm349.07,93.01c6.06-.27,11.09-2.51,13.3-8.8-2.72-3.18-5.98-6.04-8.08-9.58-9.4-15.87-18.49-31.92-27.6-47.96-.67-1.19-.63-2.78-.92-4.18-14.37-2.02-23.19-10.78-27.33-24.02-2.82-9.01.07-17.83,3.9-26.19-3.42-4.6-7.25-8.96-10.19-13.85-8.39-13.95-16.45-28.09-24.55-42.22-1.07-1.86-1.57-4.05-2.33-6.08-7.35,5.53-14.7,11.06-22.05,16.59,1.7,4.26,2.96,8.77,5.19,12.74,8.6,15.32,17.51,30.46,26.31,45.66,15.64,27.03,31.43,53.98,46.85,81.14,4.86,8.57,8.72,17.71,13.04,26.58,4.82.08,9.65.4,14.46.18Zm-300.75-33.01c17.31,29.83,34.49,59.73,51.74,89.59,7.71,13.34,15.59,26.58,23.12,40.02,1.36,2.43,1.36,5.61,1.99,8.45,2.09,4.31,4.18,8.62,6.26,12.93,2.82,2.85,6.25,5.3,8.32,8.61,5.33,8.48,10.18,17.28,14.94,26.1,1.09,2.01,1.09,4.62,1.59,6.95,6.85,0,13.7,0,20.56,0-5.45-10.27-10.67-20.67-16.39-30.78-14.14-25-28.56-49.85-42.69-74.87-1.06-1.87-.67-4.56-.95-6.87-15.56-11.37-28.81-24.58-37.18-42.44-6.88-14.68-8.9-30.04-9.13-45.89-2.18-2.05-4.95-3.75-6.43-6.22-7.81-13.1-15.2-26.44-22.98-39.55-1.1-1.86-3.56-2.92-5.38-4.34-4.12,5.36-8.24,10.72-12.36,16.09,8.33,14.07,16.75,28.09,24.96,42.23Zm84.43-218.95c-5.64-8.79-11.59-17.39-16.86-26.39-16.42-28.07-32.64-56.27-48.77-84.5-1.77-3.09-2.51-6.77-3.73-10.18-10.32,0-20.64,0-30.96,0,1.36,3.6,2.3,7.43,4.16,10.75,8.37,14.89,16.94,29.66,25.55,44.41,16.7,28.65,33.48,57.26,50.22,85.88,3.84-9.68,12.22-14.72,20.4-19.97ZM.5,327.38c3.08,3.54,6.82,6.7,9.13,10.69,21.43,36.95,42.65,74.01,63.77,111.13,1.46,2.57,1.65,5.86,2.42,8.83,8.88.06,17.77.12,26.65.18-4.08-8-7.82-16.19-12.29-23.96-27.08-47.09-54.27-94.12-81.62-141.06-1.92-3.3-5.36-5.73-8.09-8.56,0,14.25.01,28.5.02,42.75Zm558.54,326.1c6.41-.8,9.52-5,9.31-11.65-.24-7.52-.22-15.04-.31-22.56-3.4-4.5-7.21-8.75-10.13-13.54-8.48-13.95-16.64-28.1-24.82-42.23-1.33-2.29-2.1-4.9-3.13-7.37-16.49-2.26-32.4-6.35-46.8-15.1.28,2.31-.11,5,.95,6.87,14.13,25.01,28.55,49.86,42.69,74.87,5.72,10.12,10.94,20.51,16.39,30.78,5.29.02,10.65.59,15.86-.06ZM.48,221.33c1.89,1.6,4.41,2.84,5.59,4.86,23.53,40.37,46.86,80.85,70.41,121.2,1.26,2.17,4.12,3.4,6.23,5.07.13-6.78-.16-13.62.59-20.33.31-2.74,2.89-5.22,4.43-7.82-.87-2.7-1.3-5.64-2.68-8.05-26-45.31-52.08-90.58-78.28-135.77-1.46-2.51-4.16-4.3-6.29-6.42,0,15.75,0,31.5,0,47.25Zm379.93,174.76c2.45-5.96.31-11.33-4.83-15.59-3.57-2.96-6.58-6.58-9.94-9.79-8.98-8.59-13.39-18.96-12.46-31.46-3.91-5.78-8.18-11.36-11.68-17.38-19.4-33.3-38.72-66.66-57.86-100.12-7.61-13.31-14.69-26.92-22.01-40.39-4.45,2.85-8.9,5.71-13.36,8.57,1.93,4.21,3.54,8.6,5.84,12.6,15.59,27.18,31.32,54.27,47,81.39,17.4,30.09,34.94,60.09,52.12,90.3,4.89,8.59,8.75,17.77,13.08,26.68,5.43.47,11.53,1.39,14.08-4.81ZM96.76,67.56c-11.79-20.8-23.89-41.42-35.81-62.15-.7-1.22-.86-2.76-1.27-4.15-19.68-2.91-21.06-2.09-27.03,16.27-.97,3-1.74,6.07-2.6,9.1,2.38,2.22,5.44,4.03,7.03,6.72,11.63,19.78,22.99,39.73,34.36,59.66.82,1.44,1.07,3.2,1.58,4.81,13.24,0,26.48,0,39.72,0-5.31-10.1-10.36-20.34-15.98-30.27Zm248.84,127.18c2.13,1.76,4.97,3.11,6.29,5.36,15.03,25.67,29.8,51.51,44.75,77.23,1.29,2.23,3.43,3.96,5.18,5.92,7.83-1.6,15.65-3.2,23.48-4.8-.94-3.23-1.28-6.8-2.91-9.64-23.36-40.67-46.85-81.26-70.48-121.77-1.31-2.25-4.16-3.6-6.3-5.37,0,17.69,0,35.38,0,53.07Zm179.93,46.92c-7.79-14.32-15.36-28.78-23.42-42.94-13.38-23.51-27.13-46.81-40.59-70.28-1.28-2.23-1.57-5.03-2.33-7.57-9.83,0-19.65,0-29.48,0,1.22,3.41,1.96,7.09,3.73,10.18,16.14,28.24,32.35,56.43,48.77,84.5,5.27,9,11.22,17.61,16.86,26.39,8.82-.1,17.64-.19,26.45-.29ZM.5,381.93c2.15,1.7,5.04,2.97,6.35,5.18,12.74,21.54,25.24,43.23,37.7,64.93,1.05,1.82,1.29,4.1,1.91,6.17,9.79-.06,19.57-.11,29.36-.17-.78-2.96-.96-6.26-2.42-8.83-21.12-37.12-42.35-74.19-63.77-111.13-2.31-3.99-6.05-7.14-9.13-10.69,0,18.18,0,36.36,0,54.54Zm363.06-61.53c-10.44-17.64-21-35.21-31.29-52.94-12.51-21.55-24.85-43.2-37.1-64.91-1.37-2.43-1.61-5.5-2.38-8.27-6.83-4.51-13.79-8.83-20.43-13.59-4.02-2.88-7.37-3.16-10.72.68,7.32,13.47,14.4,27.09,22.01,40.39,19.14,33.46,38.45,66.81,57.86,100.12,3.51,6.02,7.77,11.6,11.68,17.38,3.46-6.29,6.91-12.57,10.37-18.86Zm137.38-237.7c-13.61-23.78-27.52-47.39-41.13-71.16-1.77-3.09-2.42-6.81-3.59-10.24-11.28,0-22.55,0-33.83,0,4.34,8.64,8.35,17.47,13.1,25.89,11.91,21.09,24.2,41.97,36.19,63.02,1.28,2.24,1.56,5.06,2.3,7.61,11.28,0,22.55,0,33.83,0-2.27-5.05-4.14-10.32-6.88-15.1Zm33.39,150.86c-.56-12.92-.35-25.87-.46-38.81-1.79-.99-4.38-1.51-5.27-3.03-13.23-22.59-26.24-45.3-39.26-68.01-.46-.81-.46-1.88-.68-2.83-9.83,0-19.65,0-29.48,0,.75,2.54,1.05,5.33,2.33,7.57,13.46,23.47,27.2,46.77,40.59,70.28,8.07,14.17,15.63,28.62,23.42,42.94,6.81,1.48,9.1-1.19,8.8-8.12ZM219.94,29.67c11.71,20.76,23.88,41.25,35.74,61.92,1.03,1.8,1.1,4.15,1.62,6.25,10.78,0,21.57,0,32.35,0-4.72-9.48-9.06-19.19-14.25-28.4-11.71-20.75-23.88-41.24-35.73-61.91-1.03-1.8-1.09-4.15-1.6-6.25-10.78,0-21.57,0-32.35,0,4.72,9.48,9.04,19.19,14.24,28.4Zm118.36-12.69c13.47,23.59,27.22,47.01,40.68,70.6,1.77,3.09,2.44,6.81,3.61,10.24,10.78,0,21.56,0,32.35,0-5.91-11.21-11.56-22.56-17.8-33.59-10.72-18.96-21.85-37.67-32.64-56.59-1.01-1.76-.8-4.22-1.15-6.35-10.78,0-21.57,0-32.35,0,2.41,5.24,4.44,10.7,7.29,15.69Zm-16.23,80.85c-5.31-10.1-10.36-20.35-16-30.26-11.46-20.14-23.26-40.09-34.83-60.17-1.07-1.85-1.5-4.08-2.22-6.13-10.32,0-20.64,0-30.96,0,.51,2.09.57,4.45,1.6,6.25,11.85,20.67,24.03,41.16,35.73,61.91,5.2,9.22,9.53,18.92,14.25,28.4,10.81,0,21.62,0,32.42,0Zm176.91,180.44c-.07,7.99-.27,15.98-.41,23.97,1.79,1.49,4.17,2.64,5.29,4.53,9.71,16.42,19.24,32.96,28.68,49.53,1.04,1.83,1.24,4.15,1.83,6.24,13.34-.48,26.01,2.55,38.33,7.37-1.03-2.96-1.63-6.16-3.17-8.83-15.68-27.25-31.62-54.35-47.22-81.65-2.95-5.16-4.76-10.97-7.09-16.49-12.33-.6-16.14,3.03-16.24,15.32ZM300.05,1.27c4.34,8.65,8.35,17.48,13.1,25.9,11.91,21.1,24.21,41.99,36.2,63.04,1.28,2.24,1.55,5.06,2.29,7.61,10.32,0,20.64,0,30.96,0-1.18-3.43-1.85-7.15-3.61-10.24-13.46-23.59-27.22-47.01-40.68-70.6-2.85-4.99-4.88-10.45-7.29-15.69-10.32,0-20.64,0-30.96-.01Zm319.53,502.94c3.17,4.22,6.79,8.18,9.43,12.71,14.28,24.46,28.32,49.05,42.41,73.62.83,1.45,1.29,3.12,1.93,4.69,5.09-4.9,10.32-9.68,15.22-14.76,3.44-3.57,5.25-8.04,2.09-12.55-3.43-4.89-7.03-9.88-11.47-13.79-11.14-9.83-17.51-21.28-15.06-36.54-1.92-1.65-4.41-2.95-5.66-5.01-5.31-8.74-9.97-17.88-15.41-26.54-3.77-5.99-8.41-11.43-12.67-17.11-3.6,11.77-7.21,23.53-10.81,35.3Zm-89.8-406.42c-1.11-2.87-2.02-5.07-2.82-7.31-10.14-28.22-20.18-56.48-30.54-84.63-.78-2.12-3.72-4.82-5.71-4.88-11.48-.29-22.98.13-34.48.31,1.17,3.43,1.82,7.15,3.59,10.24,13.61,23.78,27.51,47.39,41.13,71.16,2.74,4.78,4.61,10.06,6.88,15.1h21.96ZM131.84,31.62c11.33,20.03,23.01,39.86,34.38,59.86,1,1.77.8,4.23,1.15,6.36,10.29,0,20.58,0,30.87,0-2.53-5.69-4.59-11.66-7.66-17.04-13.53-23.64-27.41-47.07-41-70.68-1.52-2.64-1.98-5.89-2.93-8.86-10.29,0-20.58,0-30.87,0,5.34,10.13,10.42,20.4,16.06,30.36ZM269.01,1.27c.73,2.05,1.16,4.27,2.22,6.13,11.57,20.08,23.38,40.02,34.83,60.17,5.64,9.91,10.69,20.16,16,30.26,9.86,0,19.71,0,29.57,0-.74-2.55-1.01-5.37-2.29-7.61-11.99-21.06-24.29-41.94-36.2-63.04-4.75-8.42-8.75-17.25-13.1-25.9-10.35,0-20.69,0-31.04,0Zm122.43.02c4.32,8.12,8.45,16.36,13.01,24.35,12.19,21.4,24.61,42.68,36.82,64.07,1.43,2.5,2.17,5.39,3.23,8.09,9.83,0,19.66,0,29.48,0-.74-2.55-1.02-5.36-2.3-7.61-11.99-21.05-24.28-41.93-36.19-63.02-4.75-8.41-8.76-17.25-13.1-25.89-10.32,0-20.63,0-30.95,0Zm-216.7-.03c4.89,9.21,9.56,18.55,14.73,27.61,11.48,20.14,23.26,40.11,34.79,60.22,1.55,2.71,2.38,5.83,3.54,8.75,9.83,0,19.66,0,29.49,0-.52-2.09-.58-4.45-1.62-6.25-11.85-20.67-24.03-41.16-35.74-61.92-5.2-9.21-9.52-18.92-14.24-28.4-10.32,0-20.64,0-30.96,0Zm-88.45,0c2.42,5.47,4.4,11.2,7.35,16.38,13.98,24.5,28.26,48.83,42.3,73.29,1.15,2.01,1.32,4.59,1.94,6.9,9.83,0,19.66,0,29.48,0-.35-2.14-.15-4.59-1.15-6.36-11.37-20-23.05-39.83-34.38-59.86-5.64-9.96-10.72-20.23-16.06-30.36-9.83,0-19.66,0-29.49,0Zm294.94,301.43c-12.33-20.74-24.8-41.4-36.93-62.25-4.38-7.54-7.94-15.55-11.88-23.35-2.05-.63-4.33-.87-6.11-1.95-11.24-6.86-22.37-13.9-33.53-20.88.76,2.77,1.01,5.84,2.38,8.27,12.24,21.71,24.58,43.36,37.1,64.91,10.29,17.73,20.85,35.3,31.29,52.94,5.89-5.9,11.79-11.8,17.68-17.7ZM363.36,1.28c.35,2.13.14,4.59,1.15,6.35,10.79,18.92,21.93,37.63,32.64,56.59,6.23,11.02,11.88,22.38,17.8,33.59,9.85,0,19.71,0,29.56,0-1.06-2.71-1.81-5.59-3.23-8.09-12.22-21.39-24.63-42.67-36.82-64.07-4.55-7.99-8.68-16.23-13.01-24.35-9.36,0-18.73,0-28.09-.01Zm-216.7-.02c.95,2.97,1.41,6.22,2.93,8.86,13.59,23.61,27.47,47.04,41,70.68,3.08,5.38,5.14,11.34,7.66,17.04,9.85,0,19.71,0,29.56,0-1.16-2.93-1.99-6.05-3.54-8.75-11.53-20.11-23.31-40.08-34.79-60.22-5.16-9.06-9.83-18.4-14.73-27.61-9.36,0-18.73,0-28.09,0Zm456.86,524.78c5.6,10.26,11.07,20.59,16.82,30.76,9.62,17.02,19.38,33.96,29.16,50.88,1.2,2.08,2.93,3.86,4.42,5.78,6.47-6.08,12.95-12.15,19.42-18.23-.63-1.57-1.09-3.23-1.93-4.69-14.08-24.57-28.13-49.16-42.41-73.62-2.64-4.53-6.26-8.49-9.43-12.71-5.35,7.27-10.7,14.55-16.06,21.82Zm-412.67-146.65c-.06,2.83-.92,5.64-1.4,8.46,9.37,16.51,18.86,32.95,28.06,49.55,3.74,6.76,6.86,13.86,10.26,20.81,9.83,0,19.66,0,29.48,0-1.19-3.66-1.78-7.66-3.65-10.93-16.1-28.25-32.31-56.44-48.79-84.47-3.96-6.74-9.07-12.81-13.65-19.18-.08,11.92-.08,23.84-.31,35.76Zm255.43,36.57c-2.11-2.28-4.73-4.26-6.24-6.88-16.34-28.2-32.51-56.51-48.72-84.78-3.71,3.54-7.63,6.9-11.1,10.66-6.82,7.39-6.62,12.16.48,19.56,3.23,3.36,6.33,6.9,9.9,9.85,12.39,10.25,15.05,23.26,11.44,38.22,1.83,1.43,4.28,2.49,5.38,4.34,7.78,13.11,15.18,26.45,22.98,39.55,1.47,2.47,4.25,4.17,6.43,6.22,3.15-12.25,6.29-24.49,9.44-36.74Zm16.03-23.64c-4.87-7.5-10.03-14.83-14.54-22.54-12.57-21.46-24.88-43.08-37.29-64.64-6.39,6.39-12.78,12.77-19.17,19.16,16.21,28.28,32.38,56.58,48.72,84.78,1.52,2.62,4.14,4.6,6.24,6.88,5.34-7.88,10.69-15.76,16.03-23.64Zm-82.85,30.54c3.16,6.81,5.85,13.89,9.56,20.38,21.6,37.75,43.44,75.36,65.2,113.01,4.77,8.25,9.7,16.41,14.31,24.74,1.25,2.25,1.61,5,2.38,7.52,6.86,3.49,13.72,6.98,20.58,10.47-.63-2.84-.63-6.02-1.99-8.45-7.53-13.44-15.41-26.68-23.12-40.02-17.26-29.86-34.44-59.76-51.74-89.59-8.21-14.14-16.63-28.16-24.96-42.23-3.41,1.39-6.82,2.79-10.23,4.18Zm22.36-139.61c-1.75-1.96-3.88-3.7-5.18-5.92-14.96-25.72-29.72-51.55-44.75-77.23-1.31-2.24-4.16-3.59-6.29-5.36-.09,2.93-.19,5.86-.28,8.78-.28,9.9-3.2,12.98-12.9,13.57,3.94,7.8,7.5,15.81,11.88,23.35,12.13,20.86,24.6,41.52,36.93,62.25,6.86-6.48,13.72-12.96,20.58-19.45Zm-36.97,140.28c1.31,3.86,2.06,8.03,4.02,11.53,8.44,15.13,17.23,30.06,25.9,45.06,15.63,27.04,31.38,54.02,46.83,81.16,5.26,9.25,9.79,18.92,14.65,28.39,4.89-.39,9.78-.78,14.68-1.17-.77-2.52-1.13-5.26-2.38-7.52-4.61-8.33-9.54-16.49-14.31-24.74-21.77-37.65-43.6-75.26-65.2-113.01-3.71-6.49-6.4-13.57-9.56-20.38-4.87.22-9.74.45-14.61.67ZM59.68,1.27c.41,1.39.57,2.92,1.27,4.15,11.91,20.73,24.02,41.35,35.81,62.15,5.62,9.92,10.67,20.17,15.98,30.27,8.38,0,16.76,0,25.15,0-.62-2.31-.79-4.89-1.94-6.9-14.04-24.47-28.32-48.79-42.3-73.29-2.95-5.17-4.93-10.9-7.35-16.38-8.87,0-17.74,0-26.61,0Zm423.09,374.75c-6.86-11.24-13.84-22.41-20.51-33.77-2.82-4.8-4.98-10-7.44-15.01-7.93-7.16-15.93-14.24-23.77-21.5-7.04-6.52-12.51-6.78-20.58-.6,12.41,21.56,24.72,43.18,37.29,64.64,4.52,7.71,9.68,15.04,14.54,22.54,6.82-5.43,13.64-10.87,20.46-16.3Zm204.57-21.36c6.58-7.13,6.21-13.32-.67-20.27-9.44-9.55-18.92-19.07-28.49-28.49-7.46-7.34-14.72-7.2-22.2.26-1.54,1.54-2.92,3.23-4.38,4.85.76,2.04,1.27,4.22,2.33,6.08,8.09,14.12,16.16,28.27,24.55,42.22,2.94,4.89,6.77,9.25,10.19,13.85,6.25-6.15,12.73-12.07,18.67-18.51Zm-516.45,34.99c-3.14.27-6.31.29-9.46.42,3.87,8.27,7.37,16.73,11.69,24.75,6.26,11.62,13.23,22.84,19.6,34.4,1.47,2.66,1.77,5.97,2.61,8.98,10.81,0,21.62,0,32.43,0-3.4-6.95-6.52-14.05-10.26-20.81-9.2-16.6-18.69-33.04-28.06-49.55-6.18.61-12.36,1.28-18.55,1.8Zm411.96,152.48c4.96,9.74,10.06,19.41,14.84,29.24,2.72,5.59,4.93,11.42,7.36,17.14,7.2,4,14.74,7.51,21.49,12.17,4.75,3.28,8.19,8.39,12.64,12.18,4.52,3.85,9.61,5.99,14.74.59-1.49-1.92-3.21-3.7-4.42-5.78-9.78-16.92-19.55-33.86-29.16-50.88-5.75-10.17-11.22-20.5-16.82-30.76-6.89,5.36-13.78,10.73-20.67,16.09ZM0,456.14c0,.65.53,1.31.86,2.07,15.24,0,30.42,0,45.6,0-.62-2.07-.86-4.35-1.91-6.17-12.46-21.71-24.96-43.39-37.7-64.93-1.3-2.21-4.19-3.47-6.35-5.18C.32,406.66.14,431.4,0,456.14Zm131.95-66.06c3.87,8.27,7.37,16.73,11.69,24.75,6.37,11.83,13.44,23.28,19.95,35.05,1.35,2.45,1.54,5.54,2.27,8.33,9.83,0,19.65,0,29.48,0-.84-3.01-1.14-6.32-2.61-8.98-6.38-11.55-13.35-22.78-19.6-34.4-4.32-8.02-7.82-16.49-11.69-24.75-9.83,0-19.65,0-29.48,0ZM533.87,120.87c-15.42,0-30.31,0-45.21,0,.22.95.22,2.02.68,2.83,13.02,22.71,26.03,45.43,39.26,68.01.89,1.52,3.47,2.04,5.27,3.03v-73.87ZM103.95,390.08c.78,2.28,1.21,4.75,2.39,6.8,8.09,14.15,16.52,28.1,24.44,42.35,3.36,6.04,5.73,12.64,8.55,18.98,8.85,0,17.69,0,26.54,0-.72-2.79-.91-5.88-2.27-8.33-6.51-11.76-13.57-23.22-19.95-35.05-4.32-8.02-7.82-16.49-11.69-24.75-9.34,0-18.67,0-28.01,0Zm275.99,172.24c-6.57,7.07-6.31,11.93.55,18.95,9.59,9.8,19.34,19.44,29.05,29.11,8.82,8.78,14.78,8.38,23.11-1.48-5.34-9.49-10.71-18.96-16.01-28.47-6.49-11.63-12.92-23.28-19.38-34.93-5.8,5.58-11.86,10.92-17.33,16.81ZM19.77,54.66c2.02,1.03,4.93,1.52,5.92,3.17,6.55,10.87,12.77,21.94,18.89,33.05,1.13,2.05,1.3,4.62,1.91,6.94,8.84,0,17.69,0,26.53,0-.52-1.61-.77-3.37-1.58-4.81-11.37-19.94-22.73-39.88-34.36-59.66-1.58-2.69-4.65-4.5-7.03-6.72-3.43,9.34-6.85,18.68-10.28,28.02Zm461.86,270.63c7.75,13.42,15.5,26.83,23.26,40.25,9.83-1,19.66-2,29.48-3-.59-2.09-.79-4.41-1.83-6.24-9.45-16.58-18.97-33.11-28.68-49.53-1.12-1.89-3.5-3.04-5.29-4.53-2.48,10.01-8.41,17.49-16.94,23.06Zm-180.21-171.08c-5.75-11.18-11.76-22.23-17.65-33.33-11.3,0-22.6,0-33.9,0,4.13,7.91,8.3,15.8,12.36,23.75,1.42,2.79,2.58,5.71,3.86,8.58,3.73,1.58,7.71,2.75,11.14,4.82,12.6,7.58,25.02,15.46,37.51,23.22-4.43-9.02-8.72-18.11-13.32-27.04Zm280.35,440.08c-1.79-1.41-4.15-2.48-5.27-4.3-6.46-10.53-12.67-21.22-18.83-31.93-.8-1.39-.81-3.23-1.18-4.86-8.85.98-17.69,1.96-26.54,2.94,1.03,2.46,1.81,5.07,3.13,7.37,8.18,14.13,16.34,28.28,24.82,42.23,2.91,4.79,6.73,9.04,10.13,13.54,1.38-10.08,6.25-18.26,13.74-24.98ZM322.79,185.7v-64.83c-13.29,0-26.15,0-39.01,0,5.89,11.11,11.9,22.16,17.65,33.33,4.6,8.93,8.89,18.02,13.32,27.04,2.34,1.3,4.68,2.59,8.04,4.45Zm282.27,402.81c-2.44-5.72-4.65-11.56-7.36-17.14-4.78-9.83-9.88-19.5-14.84-29.24-8.79,3.68-17.57,7.37-26.36,11.05.37,1.63.38,3.48,1.18,4.86,6.16,10.71,12.37,21.4,18.83,31.93,1.12,1.83,3.48,2.89,5.27,4.3,7.76-1.93,15.52-3.85,23.28-5.78Zm-150.22-261.27c2.46,5.02,4.61,10.21,7.44,15.01,6.67,11.35,13.65,22.52,20.51,33.77,7.37-3.49,14.75-6.99,22.12-10.48-7.75-13.42-15.5-26.83-23.26-40.25-8.93.65-17.87,1.3-26.8,1.95Zm274.61,107.95c-.16-8.13-5.02-11.65-13.8-11.87-7.84-.2-15.7.03-23.55.07.29,1.4.25,3,.92,4.18,9.11,16.04,18.21,32.09,27.6,47.96,2.1,3.55,5.35,6.41,8.08,9.58.31-16.64,1.06-33.3.74-49.93ZM217.45,120.88c.67,2.49.89,5.23,2.09,7.43,7.06,12.94,14.34,25.75,21.55,38.6,2.33-1.16,4.71-2.24,6.99-3.51,6.03-3.35,12.01-6.79,18.01-10.19-1.28-2.86-2.43-5.79-3.86-8.58-4.06-7.95-8.23-15.84-12.36-23.75-10.81,0-21.62,0-32.42,0Zm-28.66,0c-11.87,0-23.29,0-34.72,0,.43,1.87.44,3.97,1.34,5.57,8.89,15.6,17.81,31.19,27.05,46.58,1.15,1.92,4.17,2.72,6.32,4.04v-56.19ZM3.81,97.82c15.54,0,29.11,0,42.68,0-.61-2.33-.79-4.89-1.91-6.94-6.12-11.12-12.34-22.19-18.89-33.05-.99-1.65-3.9-2.14-5.92-3.17-5.18,14.02-10.37,28.04-15.96,43.16Zm207.43,28.87c.21,17.57.06,35.15.11,52.73,0,2.02.34,4.03.64,7.41,10.41-7.12,19.76-13.52,29.11-19.92-7.21-12.85-14.49-25.67-21.55-38.6-1.2-2.2-1.42-4.94-2.09-7.43-5.02-1.2-6.27,1.09-6.21,5.82Zm127.17,353.91c0,7.53,5.57,13.16,13.23,13.33,5.87.12,11.76-.12,17.64-.2-.7-2.79-.83-5.91-2.19-8.33-7.27-12.98-14.74-25.85-22.44-38.58-1.19-1.97-3.95-2.98-5.98-4.44-.09,12.74-.25,25.48-.25,38.22Zm160.48,160.49c-.01,7.58,4,11.44,10.64,12.6,4.23.74,8.72-.04,13.09-.14-.5-2.33-.5-4.93-1.59-6.95-4.77-8.82-9.61-17.62-14.94-26.1-2.08-3.31-5.51-5.77-8.32-8.61.41,9.73,1.15,19.47,1.13,29.2Zm-182.96-183.91c-.37.34-.74.67-1.11,1.01.37-.34.74-.67,1.11-1.01Z"/><path class="cls-1" d="m542.24,448.43s-.06-.02-.08-.04v-36.69c9.92.55,17.62,4.14,21.96,6.87l5.47-15.91c-6.32-3.74-16.15-7.05-27.43-7.42v-20.99h-10.67v21.58c-20.74,3.07-33,17.51-33,34.68,0,14.43,10.18,26.37,31.82,34.07.39.16.79.3,1.18.43v39.56c-.71.04-1.42.06-2.17.06-10.95,0-22.39-4.49-28.85-8.7l-5.47,16.66c8.45,4.96,20.64,8.19,33.81,8.19.91,0,1.81-.02,2.68-.04,3.8-.14,7.36-.53,10.67-1.2,20.3-3.94,31.67-17.21,31.67-34.82s-10.69-28.34-31.59-36.29Zm-22.88-20.4c0-6.89,4.27-12.88,12.13-15.28v31.09c-8.25-4.17-12.13-8.53-12.13-15.81Zm22.8,74.3v-32.35c7.46,4.39,10.54,9.39,10.54,16.74,0,6.72-3.41,12.54-10.54,15.62Z"/><path class="cls-23" d="m542.16,519.54v16.48h-10.67v-15.28c3.8-.14,7.36-.53,10.67-1.2Z"/></svg>