<?xml version="1.0" encoding="UTF-8"?><svg id="Layer_1" xmlns="http://www.w3.org/2000/svg" xmlns:xlink="http://www.w3.org/1999/xlink" viewBox="0 0 668.02 663.74"><defs><style>.cls-1{fill:url(#linear-gradient);}</style><linearGradient id="linear-gradient" x1="0" y1="331.87" x2="668.02" y2="331.87" gradientUnits="userSpaceOnUse"><stop offset=".29" stop-color="#ffdb6e"/><stop offset="1" stop-color="#ffbc5e"/></linearGradient></defs><path class="cls-1" d="m227.92,353.19c0-29.04.16-58.07-.05-87.11-.16-22.64,13.72-37.64,29.15-43.19,5.42-1.95,11.02-2.57,16.69-2.58,36.31-.04,72.63-.23,108.94.06,22.81.18,39.29,12.53,44.62,32.45,1.1,4.1,1.47,8.27,1.47,12.5,0,58.68.06,117.36,0,176.04-.03,26.66-18.51,45.19-45.15,45.28-37.04.12-74.07.13-111.11,0-25.28-.08-44.03-18.09-44.4-43.32-.44-30.04-.1-60.1-.1-90.15-.02,0-.04,0-.05,0Zm362.03-113.32c-.83,18.03-7.27,24.6-25.24,25.02-13.94.33-27.89-.14-41.83.18-4.66.11-7.77-.68-8.74-5.75-.29-1.51-1.25-2.93-2.09-4.27-7.76-12.52-23.94-17.82-37.34-12.29-14.44,5.96-22.41,22.09-18.55,37.72,3.22,13.02,12.42,19.42,24.87,21.94,10.27,2.08,23.25-3.74,29.32-13.29,1.61-2.53,3.2-3.52,6.22-3.52,18.15.03,36.32.2,54.45-.38,16.92-.54,31.27-12.2,36.44-28.33,2.88-8.99,3.33-18.27,3.35-27.55.09-49.68.08-99.37-.04-149.05,0-3.47,1-4.89,4.27-6.14,19.05-7.31,28.41-25.23,23.73-44.74C634.56,11.82,618.88-.37,600.97,0c-17.82.38-33.55,13.69-36.93,31.26-3.42,17.75,5.77,35.36,22.36,42.34,3.13,1.32,4.35,2.88,4.33,6.39-.16,26.57-.09,53.15-.09,76.06-.64,30.37.54,57.1-.68,83.8Zm11.47-183.48c-10.41-.02-18.16-7.62-18.04-17.66.13-10.12,7.42-17.27,17.43-17.08,10.51.19,17.92,7.38,17.84,17.32-.08,10.07-7.37,17.44-17.23,17.41ZM52.96,475.7c0-6.6,1.12-13.01,3.57-19.13,3.42-8.55,9.62-13.62,18.93-14.48,4.04-.37,8.1-.68,12.16-.73,17.28-.18,34.55.12,51.83.71,2.77.1,4.15.73,5.53,3.4,5.26,10.17,13.96,15.85,25.33,16.66,15.86,1.13,29.33-9.82,32.32-25.7,2.61-13.88-6.66-28.92-20.82-33.8-14.71-5.06-29.36,1.27-36.56,15.95-.99,2.01-2.14,2.74-4.32,2.68-6.97-.19-13.94-.2-20.91-.28-15.38-.17-30.79-1.37-46.14.27-15.2,1.63-27.3,8.46-34.66,22.36-5.07,9.57-7.04,19.96-7.11,30.65-.17,24.83-.09,49.66,0,74.49.01,2.86-.71,4.07-3.68,5.13-15.92,5.71-25.99,16.74-28.06,33.85-1.92,15.85,3.76,28.93,16.69,38.27,12.93,9.35,27.15,10.82,41.52,3.71,15.38-7.6,23.65-20.39,23.58-37.66-.07-17.77-8.84-30.27-25.16-37.2-3.26-1.38-4.16-3.07-4.11-6.44.2-12.34.08-24.68.08-37.03,0-11.91,0-23.81,0-35.72Zm8.31,117.83c0,11.45-8.26,19.52-19.91,19.47-11.65-.05-20.64-9.32-20.61-21.26.03-11.06,8.87-19.13,20.97-19.14,11.48,0,19.56,8.64,19.55,20.93ZM235.25,161.46c-5.08,0-10.17-.09-15.25.02-9.78.22-18.56-2.63-26.53-8.26-4.74-3.35-9.65-6.45-14.4-9.8-31.8-22.41-63.54-44.9-95.39-67.22-2.96-2.07-3.73-3.55-2.35-7.21,5.87-15.58,3.51-30.13-7.59-42.61-10.52-11.83-24.23-16.16-39.47-12.6C17.45,17.71,6.47,28.78,2.98,45.82c-3.3,16.12,1.65,30.07,14.95,40.1,13.59,10.25,28.45,10.57,43.49,3.27,2.84-1.38,4.61-1.15,6.98.58,12.89,9.42,25.79,18.84,38.85,28.02,24.81,17.44,49.27,35.4,74.8,51.81,11.36,7.3,23.36,11.86,37.18,11.61,12.18-.22,24.38.71,36.58.77,2.98.01,4.59.67,6.24,3.22,7.63,11.75,24.18,16.53,36.94,10.96,13.31-5.8,21.35-21.35,18.12-35.07-3.13-13.31-14.85-22.96-28.82-23.72-12.98-.71-25.66,8.08-29.88,20.99-.87,2.66-1.93,3.62-4.87,3.46-6.08-.32-12.2-.1-18.3-.1v-.26ZM22.15,52.26c.41-11.59,9.5-20.32,20.87-20.03,11.26.29,20.21,9.77,19.9,21.08-.3,10.97-9.52,19.71-20.49,19.44-11.84-.29-20.68-9.23-20.28-20.49Zm599.09,416.08c-1.29-14.33-5.16-27.71-16.81-37.48-9.16-7.69-20.09-10.18-31.64-10.26-19.03-.13-38.06-.42-57.08.61-3.09.17-5.17-.28-6.81-3.67-3.24-6.7-8.54-11.73-15.58-14.52-15.2-6.03-32.13,1.31-38.59,16.61-6.74,15.97-.08,33.17,15.53,40.12,14.76,6.57,33.34-.09,40-14.7,1.2-2.62,2.56-2.92,4.87-2.93,9.44-.03,18.88-.15,28.32-.28,10.46-.14,20.92-.63,31.37-.42,15.02.31,23.24,7.79,25.67,22.63.99,6.04,1.31,12.13,1.32,18.23.03,22.23-.05,44.45.04,66.68.01,2.74-.83,4.06-3.43,5.15-15.33,6.39-24.63,17.78-26.4,34.4-2.82,26.54,19.45,47.97,45.09,45.16,20-2.19,34.75-17.72,36.73-37.25,1.9-18.77-9.84-36.58-28.55-42.97-2.9-.99-3.69-2.45-3.66-5.37.15-13.22.06-26.44.06-39.65-.07-13.36.74-26.76-.46-40.08Zm-28.65,123.5c-.04-11.21,8.99-19.38,21.27-19.24,11.07.12,19.21,8.72,19.25,20.32.04,11.67-8.31,20.12-19.84,20.08-11.69-.04-20.64-9.2-20.68-21.16ZM344.01,79.53c10.48.02,13.9,3.13,14.08,13.73.23,13.36-.1,26.73.07,40.09.05,3.76-1.06,5.96-4.42,7.97-11.74,7.02-17.36,19.03-14.75,32.21,2.45,12.37,10.46,20.34,22.51,23.51,12.84,3.38,23.58-1.08,31.64-11.27,11.81-14.95,6.42-36.17-11.49-45.67-3.31-1.75-4.47-3.62-4.34-7.39.51-14.94,2.12-29.87.77-44.85-1.46-16.15-9.87-25.67-25.31-28.07-3.71-.58-7.53-.57-11.3-.57-22.81-.03-45.62-.04-68.43.1-3.19.02-4.73-.69-5.86-4.04-6.92-20.56-29.98-31.96-51.16-25.59-20.75,6.24-33.22,28.08-28.02,49.06,3.99,16.08,19.3,28.97,35.38,30.48,23.02,2.16,37.54-13.22,42.82-26.38,1.09-2.71,2.33-3.4,5.01-3.37,12.35.13,24.7.06,37.05.06,11.91,0,23.83-.02,35.74,0Zm-115.65-32.06c10.73.1,20.07,9.92,19.74,20.75-.34,11.06-9.29,19.63-20.33,19.47-11.38-.16-20.11-9.07-19.87-20.28.23-11.12,9.4-20.05,20.46-19.95Zm-68.88,614.23c16.35-5.77,27.61-21.05,27.96-37.87.37-17.82-9.83-32.91-26.79-39.43-1.8-.69-2.92-1.33-3.14-3.49-.68-6.66-1.07-13.28-.03-19.96,1.13-7.31,4.47-10.89,11.86-11.54,4.91-.43,9.86-.54,14.79-.56,23.24-.1,46.47-.06,69.71-.22,2.85-.02,3.86,1.1,4.98,3.59,5.14,11.38,14.04,18.21,26.57,18.84,18.47.93,32.57-14.3,31.76-33.52-.53-12.69-9.92-23.73-22.86-26.9-12.78-3.13-27.07,2.68-32.96,13.74-1.48,2.77-3.25,3.54-6.15,3.53-19.9-.09-39.79-.08-59.69-.04-8.86.01-17.72-.3-26.56.59-17.53,1.75-28.95,12.77-31.55,30.13-1.02,6.81-.68,13.62-.66,20.43,0,2.93-.51,4.42-3.73,5.53-18.84,6.44-30.55,25.39-27.49,43.82,3.41,20.53,20.53,35.42,41.59,35.39,3.68.14,8.11-.53,12.4-2.04Zm7.15-38.57c.19,11.45-8.43,20.47-19.64,20.58-11.43.11-20.67-8.3-20.8-18.93-.17-13.03,7.71-21.43,20.21-21.57,11.42-.12,20.04,8.37,20.23,19.92Zm284.34-73.8c7.92.77,11.32,4.07,12.74,11.78,1.07,5.78.45,11.59.72,17.38.14,3.01-.87,4.58-3.87,5.72-19.06,7.24-30.09,26.68-26.26,45.84,4.1,20.54,21.11,34.19,41.97,33.67,19.64-.49,36.16-15.11,39.33-34.82,3.22-19.96-7.85-38.22-27.21-44.58-2.4-.79-3.19-1.86-3.1-4.28.25-6.68-.2-13.34-.75-20.01-1.36-16.33-11.14-27.5-27.12-30.8-5.44-1.12-10.93-1.39-16.45-1.39-13.21,0-26.43.05-39.64.09-2.43,0-4.3-.47-5.67-3.01-7-12.95-22.7-18.5-36.7-13.2-14.29,5.41-22.42,19.98-19.24,34.44,2.95,13.36,14.86,23.99,28,24.98,12.8.96,25.59-7.28,30.24-19.84.9-2.44,2.26-2.57,4.24-2.57,7.84.03,15.68.01,23.53.01,8.42.2,16.85-.24,25.25.58Zm44.71,73.82c-.06,11.09-9.19,20.43-20.04,20.52-11.05.09-20.31-9.18-20.51-20.53-.2-11.39,9.05-20.74,20.56-20.8,11.22-.05,20.06,9.15,19.99,20.81Zm86.87-259.23c3.18-.04,4.81.78,6.02,4.05,6.86,18.6,26.8,29.74,46.04,26.06,18.95-3.62,33.54-21.2,33.4-40.27-.14-19.59-14.58-37.3-33.07-40.56-20.24-3.57-39.71,7.11-46.49,25.87-1.2,3.32-2.77,4.02-5.93,4-21.34-.1-42.69-.12-64.03.06-4.19.04-7.26-.5-8.51-5.16-.46-1.7-1.93-3.22-3.17-4.62-11.5-12.91-30.7-14.05-43.26-2.62-12.9,11.73-13.65,30.58-1.74,43.61,13.78,15.07,38.28,12.53,47.53-5.46,2.27-4.41,4.83-4.95,8.73-4.93,10.45.05,20.91.02,31.36.02,11.04,0,22.07.09,33.11-.06Zm45.2,9.7c-11.69.05-20.37-8.82-20.38-20.84-.01-11.35,8.6-19.61,20.46-19.63,10.85-.02,19.78,9.28,19.8,20.61.01,11.13-8.67,19.8-19.88,19.85ZM2.99,267.9c-2.22,20.22,11.95,39.79,32.02,44.24,21.45,4.75,40.65-6.17,47.53-27.24.82-2.52,2.04-2.92,4.4-2.9,18.01.17,36.02.28,54.03.17,2.9-.02,4.29.63,5.56,3.37,6.01,12.98,20.64,19.7,34.52,16.18,13.39-3.4,23.23-15.92,22.99-29.26-.27-14.82-10.02-27.21-23.98-30.46-13.51-3.14-27.57,3.6-33.66,16.48-1.2,2.53-2.7,2.92-5.06,2.92-18.01,0-36.03.04-54.04.2-2.76.02-3.92-.87-4.91-3.55-5.97-16.07-21.96-27.21-38.51-27.19-21.21.03-38.56,15.75-40.89,37.04Zm20.78,3.82c-.09-11.54,8.35-19.84,20.16-19.84,11.55,0,20.5,8.67,20.39,19.79-.11,12.3-8.58,20.63-20.96,20.62-11.14,0-19.51-8.79-19.6-20.57Zm28.23,73.98c-2.72,20.88,9.92,40.1,29.96,45.55,19.74,5.37,40.82-4.91,48.33-24.24,1.77-4.56,4.08-5.06,8.16-5.2,4.66-.16,7.31,1.01,9.75,5.44,6.54,11.87,20.44,17.28,33.19,13.83,12.93-3.49,22.36-15.27,22.59-28.21.25-14.47-8.9-27.29-22.1-30.94-13.3-3.68-27.24,1.53-33.54,13.65-2.49,4.78-5.3,6.15-10.03,5.47-.57-.08-1.18-.1-1.74,0-3.51.66-4.94-.96-6.15-4.24-5.91-16.08-21.01-26.46-37.85-26.45-20.41,0-37.98,15.31-40.6,35.34Zm20.49,4.51c.04-11.43,8.72-19.9,20.28-19.79,11.25.11,20.26,9.48,20.06,20.87-.19,11.01-9.09,19.61-20.25,19.59-11.33-.02-20.13-9.08-20.09-20.67Z"/></svg>