<?xml version="1.0" encoding="UTF-8"?><svg id="Layer_1" xmlns="http://www.w3.org/2000/svg" xmlns:xlink="http://www.w3.org/1999/xlink" viewBox="0 0 715 715.22"><defs><style>.cls-1{fill:url(#linear-gradient);}</style><linearGradient id="linear-gradient" x1="0" y1="357.61" x2="715" y2="357.61" gradientUnits="userSpaceOnUse"><stop offset=".29" stop-color="#ffdb6e"/><stop offset="1" stop-color="#ffbc5e"/></linearGradient></defs><path class="cls-1" d="m213.65,0c10.65,2.31,21.4,4.28,31.94,7.02,17.9,4.66,33.91,12.71,46.17,27.2,1.6,1.89,4.78,3.05,7.38,3.38,27.8,3.6,53.33,30,55.28,56.24,2.11,28.32,2.26,56.79,3,85.2.34,13.26.32,26.54-.02,39.8-.27,10.39-.99,20.66-6.39,30.21-5.9,10.44-14.21,17.73-25.19,21.93-3.96,1.51-5.69,3.58-6.12,7.77-2.52,24.22-11.89,45.56-26.9,64.71-13.67,17.44-31.02,29.8-50.83,39.13-5.39,2.54-6.97,14.77-2.19,18.43,11.67,8.96,23.31,18.02,35.55,26.17,4.18,2.78,10,3.55,15.21,4.25,24.95,3.35,45.65,14.83,63.43,32.2.62.61,1.38,1.08,3.52,2.73,0-3.4,0-5.51,0-7.62,0-30.96-.06-61.91.04-92.87.06-20.94,19.77-41.79,40.67-43.23,8.56-.59,17.15-.9,25.72-.91,79.12-.07,158.25,0,237.37-.09,13.12-.02,25.16,3.08,35.73,10.9,9.39,6.96,14.89,16.73,16.37,28.05,1.4,10.7,1.51,21.62,1.53,32.45.11,89.61.11,179.22.02,268.84-.02,20.14-6.48,37.35-25.48,47.01-6.42,3.27-14.03,5.88-21.11,5.91-89.36.4-178.73.7-268.09-.06-20.09-.17-35.54-13.83-40.95-34.1-2.62-9.81-1.81-20.53-2.6-31.47-13.45,7.86-28.49,6.19-43.29,6.19-87.5.03-175.01-.62-262.5.42-25.36.3-44.1-17.11-48.97-33-.57-1.84-1.29-3.64-1.95-5.46,0-34.92,0-69.83,0-104.75,1.18-4.21,2.07-8.53,3.58-12.62,14.23-38.59,43.4-59.29,82.19-68.42,6.92-1.63,14.7-2,20.49-5.56,10.74-6.59,19.98-15.61,30.51-22.59,4.91-3.25,6.11-6.72,5.69-11.83-.19-2.3-.03-4.62-.03-6.85-48.99-21.54-76-59.02-83.34-111.7-22.14-6.28-36.28-26.38-35.56-50.79.99-33.46.16-66.97.31-100.46.04-8.02.56-16.06,1.4-24.03,3.21-30.3,24.74-53.86,54.44-60.07,3.22-.67,7.59-1.13,9.21-3.32,12.69-17.18,31.15-23.81,50.61-28.68C148.32,3.45,157.28,1.87,166.18,0c15.83,0,31.65,0,47.48,0ZM47.78,155c.37.41.74.81,1.11,1.22,9.2.32,18.4.64,27.6.96.64,1.04,1.24.35,1.67-.43,11.51-21.43,27.57-37.74,50.75-46.61,12.51-4.78,19.72-3.17,27.64,7.79.54.75,1.19,1.44,1.88,2.06,19.52,17.46,52.22,15.3,68.62-5.9,4.14-5.35,9.49-7.75,15.27-6.33,18.75,4.61,34.82,14.06,46.77,29.57,5.36,6.96,10.12,14.39,15.01,21.41,2.75-.74,5.73-2.06,8.78-2.24,6.47-.4,12.98-.21,19.47-.27.38-.4.76-.8,1.14-1.2-.84-19.07-1.15-38.18-2.67-57.2-1.66-20.92-22.11-37.68-43.08-37.69-5.71,0-9.44-2.45-12.62-6.75-2.83-3.83-5.28-8.38-9.02-11.03-16.1-11.41-34.77-16.47-54.04-16.94-21.57-.53-43.47-2.81-64.76,2.7-15.84,4.1-31.62,8.5-41.45,23.89-2.44,3.82-8.24,7.41-12.73,7.71-30.59,2.05-43.91,22.98-45.44,47.87-.96,15.74,0,31.59.1,47.39Zm333.51,363.89c0,49.56.24,99.13-.17,148.69-.1,12.33,11.37,23.89,23.55,23.85,86.55-.29,173.09-.31,259.64.02,15.76.06,26.9-11.25,26.89-26.91-.03-97.27.03-194.53-.16-291.8-.01-5.04-1.06-10.7-3.51-15-5.31-9.29-14.38-12.24-24.88-12.22-84.22.11-168.44.06-252.66.07-2.56,0-5.11.13-7.67.24-11.19.49-21.28,12.22-21.19,23.67.38,49.79.16,99.59.17,149.39ZM136.91,132.41c-.94.62-1.47,1.05-2.07,1.34-23.85,11.86-39.55,29.31-39.96,57.54-.09,5.98-6.39,11.19-12.52,11.22-6.79.03-10.46-3.87-11.1-11.81-.52-6.5-6.32-12.27-12.67-11.77-6.44.51-11.21,3.71-11.05,11.83.22,11.4.5,22.82-.08,34.19-.77,15.37,11.24,25.46,25.12,26.45,7.05.5,9.32,3.32,9.89,10.3.7,8.6,1.05,17.43,3.36,25.66,6.29,22.46,17.32,42.04,35.76,57.3,18.59,15.39,39.81,23.91,63.49,25.2,17.78.97,35.26-2.68,51.31-10.94,38.69-19.93,59.26-51.64,61.01-95.28.33-8.14,5.16-13.18,13.71-13.64,9.74-.52,20.13-8.08,21.02-17.38,1.34-13.99,1.5-28.13,1.33-42.19-.08-6.61-4.79-11.04-11.42-11.44-6.19-.37-10.85,2.51-12.1,9.44-.59,3.25-1.42,6.74-3.2,9.41-2.96,4.45-7.87,5.85-12.85,4.3-5.85-1.83-8.13-6.96-8.97-12.58-.61-4.07-.09-8.36-1.05-12.31-5.39-22.37-20.83-35.64-40.97-44.52-30.66,31.46-77.89,29.25-106-.33Zm150.54,321.82c5.55,67.55-13.91,125.71-56.39,177.22,35.79,0,70.18.03,104.57-.07,2.19,0,4.54-.65,6.55-1.58,10.69-4.95,15.2-13.9,15.26-25.21.13-25.12.18-50.24-.06-75.36-.05-5.62-.97-11.34-2.25-16.84-6.37-27.47-25.81-42.71-50.39-52.82-5.23-2.15-10.85-3.38-17.29-5.34Zm-194.72.81c-3.29.28-5.21.15-6.95.64-14.53,4.09-27.77,10.89-39.08,20.83-13.92,12.23-22.37,27.71-22.73,46.46-.51,26.98-.18,53.98-.18,80.97,0,19.68,7.99,27.6,27.87,27.61,30.48.02,60.95,0,91.43,0h6.58c-43.45-51.38-62.31-109.73-56.93-176.51Zm85.16,70.23c-.72,3.32-1.66,6.15-1.9,9.03-1.48,17.77-2.76,35.56-4.18,53.34-.47,5.91-.55,11.95-1.9,17.68-1.39,5.94-1.35,10.56,2.91,15.74,6.94,8.44,13.37,12.01,21.3,9.54,10.62-3.32,16.84-11.21,16.66-21.6-.06-3.61-1.02-7.2-1.31-10.82-1.45-18.48-2.76-36.97-4.25-55.44-.47-5.84-1.36-11.64-2.06-17.46h-25.28Zm54.85,60.98c21.3-33.02,32.24-68.25,30.35-106.96-3.83,4.15-6.57,8.86-10.12,12.85-2.72,3.06-6.68,7.55-9.73,7.29-8.51-.74-10.1,5.15-13.88,10.16-4.83,6.41-2.25,12.51-1.72,18.94,1.06,13.01,1.76,26.04,2.82,39.05.51,6.24,1.5,12.45,2.28,18.67Zm-85-.35c.56-7.97.95-15.95,1.72-23.9.66-6.78,2.01-13.49,2.61-20.28.75-8.46,2.24-17.14,1.09-25.4-.73-5.27-4.97-13.45-8.87-14.24-10.41-2.1-16.37-7.98-21.48-16.12-1.63-2.59-3.72-4.89-5.6-7.33-.71,39.3,9.8,74.74,30.52,107.26Zm109.54-142.37c-9.2-6.74-18.04-13.42-27.14-19.69-1.47-1.01-4.97-1.2-6.15-.18-6.23,5.44-12.02,11.39-17.78,16.98,8.92,9.73,17.03,18.72,25.31,27.54,2.29,2.44,4.82,7.03,8.54,1.55,5.82-8.58,11.4-17.32,17.22-26.2Zm-83.36-2.7c-6-5.8-11.62-11.63-17.75-16.88-1.32-1.13-5.1-1.06-6.65.03-8.97,6.28-17.61,13.04-26.51,19.75,5.84,8.62,11.77,16.92,17.17,25.55,2.42,3.86,4.13,3.23,6.67.5,8.77-9.46,17.61-18.85,27.07-28.95Zm-9.49,45.24c1.48,2.17,3.44,4.02,4.15,6.27,2.33,7.36,7.45,8.84,14.38,8.23,5.54-.48,11.15-.1,16.73-.1,6.62,0,14.24-6.47,15.22-13.11.14-.96-.33-2.32-1-3.06-7.72-8.52-15.53-16.95-23.84-25.97-8.93,9.66-17.17,18.58-25.64,27.74Zm25.51-61.57c6.94-7.16,12.79-13.79,19.29-19.7,4.37-3.97,5.41-8.11,4.16-12.22h-47.83c.81,2.95.78,7.11,2.83,9.48,6.48,7.54,13.73,14.41,21.56,22.43Zm143.53-269.47c-.38.4-.76.8-1.14,1.2.38-.4.76-.8,1.14-1.2Zm-285.7-.03c.37.41.74.81,1.11,1.22-.37-.41-.74-.81-1.11-1.22Zm593.44,488.67c8.28-.03,13.7-4.96,13.71-12.15,0-7.3-4.48-11.58-13.1-11.6-39.05-.11-78.1-.1-117.14.01-8.16.02-12.29,4.55-12.19,12.44.09,7.13,4.48,11.27,12.28,11.29,19.29.06,38.58.02,57.88.02,19.52.01,39.05.06,58.57-.01Zm1.71-214.7c6.16.03,9.88-3.74,11.7-8.6,1.96-5.25-.78-10.13-5.34-13-2.52-1.58-6.06-2.13-9.14-2.14-27.42-.16-54.83-.09-82.25-.09-10.92,0-21.84-.18-32.76.06-9.26.2-13.31,4.64-12.62,13.12.56,6.91,4.68,10.55,12.62,10.59,19.52.1,39.03.03,58.55.03,19.75,0,39.5-.06,59.25.02Zm-60.11,71.5c19.75,0,39.49.09,59.24-.04,7.91-.05,12.68-4.5,12.87-11.3.19-6.82-5.08-12.42-12.65-12.44-39.26-.13-78.52-.12-117.77.13-3.08.02-7.69,1.5-8.86,3.73-2.05,3.89-3.57,9.45-2.27,13.27,1.02,3,6.59,6.15,10.23,6.27,19.73.61,39.48.29,59.22.29,0,.04,0,.07,0,.11Zm57.27,71.67c10-.05,15.89-5.66,14.84-13.75-.84-6.43-6.1-10.08-14.89-10.09-36.28-.03-72.57-.02-108.85,0-3.25,0-6.58-.19-9.73.44-5.08,1.02-8.56,4.08-8.9,9.65-.54,8.94,3.74,13.64,13.1,13.72,19.07.17,38.14.05,57.22.05,19.07,0,38.15.08,57.22-.02Zm-203.65-20.36c-4.53-3.4-9.43-4.76-14.31-1.07-6.2,4.7-7.53,9.36-3.13,15.52,4.21,5.9,9.43,11.31,15.07,15.87,3.74,3.03,9,3.36,13.11-.72,12.58-12.5,25.41-24.77,37.4-37.82,2.43-2.65,3.47-9.48,1.75-12.29-2-3.25-7.71-5.53-11.91-5.71-3.36-.14-7.43,2.91-10.23,5.55-8.09,7.63-15.69,15.78-23.76,24-1.61-1.36-2.74-2.42-3.97-3.35Zm44.62,45.8c-5.04-2.46-9.37-1.48-13.11,2.14-7.52,7.28-14.99,14.63-22.16,22.25-3.46,3.68-5.74,4.79-10.07.66-4.4-4.2-10.12-3.73-14.86.47-4.55,4.04-6.51,8.89-2.24,14.21,3.73,4.65,7.81,9.05,12,13.3,6.28,6.37,13.47,6.42,19.93.08,10.96-10.76,21.87-21.56,32.5-32.64,2.47-2.58,3.73-6.32,5.54-9.53-.51-5.86-3.11-8.78-7.53-10.94Zm-44.89-117.38c-5.21-4.41-10.85-3.63-15.73-.28-4.93,3.39-5.14,10.04-.65,16.02,3.69,4.92,7.91,9.62,12.63,13.55,6.02,5.02,11.04,4.31,16.73-1.33,11.7-11.59,23.37-23.21,34.93-34.95,1.48-1.51,2.7-3.65,3.18-5.7,1.3-5.55-.7-10.58-5.72-12.74-5.07-2.18-10.74-1.85-15.18,2.63-8.49,8.56-16.99,17.11-25.4,25.58-1.79-1.02-3.48-1.68-4.8-2.79Zm-1.56-72.61c-5.2-1.61-10.85-3.35-15.03,1.9-4.75,5.98-4.11,10.93,1.51,16.58,3.6,3.62,7.18,7.25,10.84,10.81,6.41,6.24,11.08,6.21,17.51-.2,11.34-11.3,22.63-22.65,33.93-33.99,4.71-4.73,5.58-13.16,1.84-17.28-3.72-4.09-14.27-3.81-18.66.58-8.52,8.51-16.99,17.07-25.42,25.55-2.4-1.5-4.29-3.27-6.51-3.96Zm-188.16-101.61c4.99-6.45,4.74-11.58-1.17-16.66-5.38-4.63-11.91-4.12-17,1.21-3.11,3.25-6.05,6.78-9.61,9.46-11.59,8.71-24.31,11.81-38.94,8.87-12.28-2.47-20.26-10.37-28.47-18.51-5.16-5.11-11.67-5.53-16.44-1.32-4.33,3.82-5.23,12.23-1.2,16.94,14.6,17.07,32.37,28.02,61.05,27.92,17.83-.79,37.3-9.17,51.78-27.91Z"/></svg>