<?xml version="1.0" encoding="UTF-8"?><svg id="Layer_1" xmlns="http://www.w3.org/2000/svg" xmlns:xlink="http://www.w3.org/1999/xlink" viewBox="0 0 708.49 638.47"><defs><style>.cls-1{fill:url(#linear-gradient);}</style><linearGradient id="linear-gradient" x1="0" y1="319.23" x2="708.49" y2="319.23" gradientUnits="userSpaceOnUse"><stop offset=".29" stop-color="#ffdb6e"/><stop offset="1" stop-color="#ffbc5e"/></linearGradient></defs><path class="cls-1" d="m639.02,189.04c7.44,0,14.33.02,21.22,0,12.45-.04,20.66-6.76,24.23-18.96.57-1.95,3.65-4.24,5.76-4.45,6.08-.6,12.25-.21,17.82-.21,1.3,14.77-4.95,25.99-15.45,35.17-8.55,7.47-18.32,12.08-29.92,12.07-7.63,0-15.26.02-22.89,0-14.64-.05-24.12-8.71-25.32-23.62h-28.63c-27.81,0-55.62.1-83.43-.1-4.41-.03-6.45,1.13-7.29,5.66-1.84,9.92-11.88,17.94-21.94,18.04-6.4.07-12.83-.35-19.18.23-2.12.19-5.24,2.45-5.82,4.39-3.63,12.28-11.77,19-24.17,19.02-14.76.03-29.53,0-45.19,0,6.57,19.8,13.01,39.24,19.58,59.06,11.45,0,22.99,0,34.54,0,18.12,0,28.45,9.82,28.3,28.42,0,.74.02,1.48,0,2.21-.33,8.89-2.18,17.18,11.01,20.43,9.7,2.39,12.52,13.02,12.59,22.9.14,21.34.04,42.69.04,65.01,13.56-11.07,27.22-19.89,43.2-25.69,23.88-8.67,47.77-8.7,71.35-1.93,43.98,12.63,72.51,42.28,82.87,86.42,11.12,47.35-5.49,93.14-47.09,123.27-23.79,17.23-51.52,24.55-80.94,21.32-22.62-2.48-43.41-10.85-60.8-26.05-7.38-6.45-14.88-9.54-25.25-9.47-82.69.54-165.39.54-248.08.03-11.88-.07-20.97,2.65-30.09,10.39-15.86,13.47-34.67,21.04-55.54,23.99-41.86,5.92-76.45-7.97-104.63-38.24-14.93-16.04-24.15-35.56-27.89-57.4-4.31-25.16-1.77-49.68,9.53-72.5,13.35-26.97,33.93-46.76,62.42-58.07,14.79-5.87,30.09-9.02,45.64-8.42,29.69,1.15,56.59,10.6,78.75,31.32.47.44,1.2.58,2.99,1.41v-8.26c0-19.19.77-38.43-.26-57.57-.72-13.39,8.68-25.14,23.9-26.79,0-7.79-.04-15.64,0-23.48.08-13.04,10.18-23.09,23.4-23.22,9.82-.09,19.63-.02,30.46-.02-4.53-13.76-8.74-26.78-13.11-39.75-2.11-6.25-2.84-14.9-7.28-17.91-4.79-3.25-13.18-1.26-20.01-1.39-7.14-.13-14.39.75-21.37-.3-5.35-.81-10.57-3.54-15.41-6.2-2.9-1.6-4.99-4.69-7.39-7.16-5.57-5.75-10.5-10.88-20.29-10.46-10.83.46-19.81-11.36-19.88-22.55-.07-11.07-.43-22.17.15-33.21.24-4.58,1.65-9.64,4.12-13.46,13.11-20.29,26.73-40.26,40.12-60.27-4.72-6.94-9.79-13.41-13.75-20.49-4.72-8.45-4.76-23.85,6.69-31.46,13.36-8.88,25.96-18.89,39.15-28.04,2.54-1.76,6.27-2.54,9.46-2.55,84.66-.14,169.33-.31,253.99.01,16.73.06,25.51,9.21,26.15,25.85.33,8.69-.18,17.54-1.49,26.14-1.69,11.13-11.47,18.73-22.69,18.71-11.34-.02-23.03-.85-32.31,7.19-5.03,4.36-8.92,10.03-13.77,15.61,10.69.87,19.68,1.04,28.46,2.48,9.28,1.52,15.03,7.37,17.01,16.93.4,1.92,3.01,4.84,4.62,4.85,38.11.27,76.23.21,114.31.21.81-14.7,13.44-24.77,26.04-23.71,10.67.9,21.53.17,32.08,1.73,17.81,2.64,36.06,23.22,35.48,38.88-.08,2.1.35,4.22.58,6.73-2.22,0-4.66,0-7.1,0-8.24-.03-16.64,2.63-19.16-10.61-1.68-8.81-11.59-12.13-20.49-12.88-7.51-.63-15.12-.13-22.72-.13v70.87ZM24.09,520.36c-1.53,51.01,43.18,91.01,86.77,94.19,55.2,4.02,108.91-45.32,101-105.9-5.75-44.02-40.94-82.35-94.52-83.14-49.77-.74-94.93,41.89-93.24,94.85Zm197.28,58.19h243.26c-21.08-39.3-20.65-78.3-.11-117.55-81.58,0-162.43,0-243.28,0,20.32,52.52,20.32,60.18.12,117.56Zm334.51,34.69v-22.09h23.82v22.16c17.24-2.13,31.69-9.14,45.7-19.53-5.53-5.27-10.98-10.45-15.66-14.9,5.42-5.5,10.56-10.72,17.28-17.54,4.42,5.55,9.08,11.4,13.86,17.4,11.15-15,17.83-29.76,19.92-47.37h-21.81v-23.78h21.77c-2.23-17.28-8.74-32.1-20.44-47.17-4.96,6.23-9.62,12.09-14.09,17.72-6.67-6.56-11.88-11.67-18.15-17.83,5.6-5.13,11.13-10.19,16.44-15.05-13.35-10.11-28.02-16.58-45.25-18.58v21.89h-23.57v-22.46c-17.58,2.75-33.04,8.08-46.67,19.92,5.93,5.52,10.97,10.21,15.15,14.11-5.6,5.9-10.77,11.35-16.74,17.63-4.63-5.33-9.25-10.66-14.15-16.3-11.53,14.18-17.2,29.47-20.06,46.73h23.07v23.51h-23.22c3.61,16.84,8.42,32.53,21.23,47.22,5.05-6.03,9.59-11.43,14.17-16.89,5.73,5.78,10.89,10.99,17.12,17.28-5.12,4.77-10.3,9.59-16.07,14.97,13.53,10.68,28.27,17.46,46.36,18.94Zm-330.51-246.84v70.29h235.45v-70.29h-235.45Zm32.83-295.31c-2.64,15.24-5.38,29.83-7.62,44.51-1.09,7.16-2.45,14,.56,21.71,6.9,17.69,12.12,36.03,18.12,54.07,11.52,34.67,23.11,69.32,34.49,103.45h68.69c.1-1.02.31-1.56.17-1.98-15.05-45.03-30.29-90.01-45.09-135.12-3.45-10.52-7.08-21.45-7.59-32.33-.48-10.26,3.03-20.7,4.78-31.06,1.29-7.64,2.57-15.29,3.9-23.25h-70.43Zm238.32-47.14c-1.39-.14-2.1-.28-2.81-.28-82.88-.01-165.76-.02-248.63.05-2.34,0-5.17.24-6.94,1.52-11.02,7.99-21.81,16.3-32.89,24.68,4.04,6.25,6.93,12.99,11.85,17.54,3.07,2.85,9.16,2.74,13.97,3.22,1.23.12,3.47-2.27,4.02-3.92,4.91-14.82,10.85-19.44,25.96-19.47,21.4-.04,42.8-.36,64.18.21,5.93.16,12.47,1.94,17.5,4.99,6.2,3.76,10.11,10.18,9.43,18.41,27.66,0,54.69.09,81.72-.16,2.22-.02,5.01-1.78,6.55-3.58,7.91-9.23,17.76-15.54,29.43-18.05,8.63-1.85,17.68-1.75,26.66-2.53v-22.64Zm-59.08,295.46h-188.44v22.78h188.44v-22.78Zm-11.49-224.87c-24.18,0-48.94-.09-73.7.22-1.59.02-4.1,2.97-4.55,4.93-1.87,8.11-3.86,16.33-4.3,24.59-.28,5.23,1.28,11.03,3.72,15.68.98,1.86,6.55,1.64,10.04,1.76,7.36.24,14.73.07,22.09.07h46.69v-47.25Zm-.38,71h-70.38c4.87,14.67,9.61,29.16,14.59,43.56.5,1.44,2.44,3.38,3.73,3.4,17.36.23,34.72.15,52.06.15v-47.11Zm-247.69,23.59c11.64-.83,20.62,3.28,27.62,12.06,2.44,3.06,5.31,5.85,8.36,8.29,1.91,1.52,4.5,2.97,6.83,3.05,10.07.33,20.15.14,30.63.14-4.9-14.72-9.6-29.15-14.6-43.48-.55-1.56-2.8-3.59-4.29-3.61-18.12-.25-36.23-.16-54.55-.16v23.71Zm294.75-.25v-70.29h-22.78v70.29h22.78Zm-284.92-47.23h39.84c-6.82-16.07,2.11-31.11,2.15-48.11-4.22,1.24-10.2,1.14-12.25,3.93-10.31,14.05-19.58,28.86-29.74,44.18Zm426.82.44h-23.03v23.02h23.03v-23.02Zm-117.55,0v23.02h23.03v-23.02h-23.03Zm47.34-.1v23.04h22.86v-23.04h-22.86ZM78.83,467.52c-2.63-3.31-5.65-3.44-8.69-.43-11.92,11.8-20.44,25.87-22.18,42.48-2.81,26.82,5.37,49.72,27.49,66.89,27.01,20.95,64.53,18.74,89.74-3.75,17.05-15.21,24.21-34.55,23.02-57.6-1-19.48-9.18-34.96-22.92-47.9-1.43-1.35-6.51-1.25-7.81.14-4.15,4.43-7.33,9.79-10.85,14.75,26.02,20.96,22.43,55.1,3.63,72.02-19.04,17.12-45.5,17.24-63.85.76-18.93-17-22.77-50.78,3.13-73.32-3.73-4.9-7.13-9.53-10.71-14.03Zm51.18-18.17h-22.82v70.29h22.82v-70.29Zm211.68,106.57c-10.92-.69-22.24.2-32.67-2.42-19.12-4.8-28.15-21.83-24.6-40.75,3.06-16.3,14.06-27.5,34.77-28.25,14.99-.55,30.05-.67,45.03.02,22.97,1.06,34.62,11.99,37.78,33.71,2.47,16.97-15.37,36.57-32.96,36.94-9.1.2-18.21.03-27.32.03l-.04.72Zm.86-24.29c7.36,0,14.72.09,22.08-.03,7.35-.12,14.01-6,13.84-12.02-.16-5.8-6.61-11.49-13.56-11.55-14.97-.12-29.94-.11-44.91,0-8.03.06-12.45,4.52-12.33,12,.11,7.09,4.48,11.4,12.05,11.54,7.6.14,15.21.03,22.82.05Zm177.77-12.15c-.82-24.29,18.66-46.7,45.55-46.66,29.3.05,48.84,20.91,48.62,48.02-.21,26.24-23.11,48.04-51.45,46.21-22.64-1.46-44.1-22.37-42.73-47.58Zm23.64.42c-.06,12.46,10,23.49,21.6,23.46,17.78-.05,24.6-11.36,25.4-23.61.82-12.67-11.5-23.35-25.54-23.51-11.12-.12-21.4,11.21-21.47,23.66Zm-272.12-129.68h-22.93v23.04h22.93v-23.04Zm142.55.06v22.8h23.05v-22.8h-23.05Zm-94.57-141.8v22.89h23.04v-22.89h-23.04Zm-24.37-107.06v-22.89h-23.04v22.89h23.04Z"/></svg>